%TF.GenerationSoftware,KiCad,Pcbnew,7.0.8*%
%TF.CreationDate,2024-08-08T21:44:56+02:00*%
%TF.ProjectId,Lucky_Wheel,4c75636b-795f-4576-9865-656c2e6b6963,rev?*%
%TF.SameCoordinates,Original*%
%TF.FileFunction,Copper,L2,Bot*%
%TF.FilePolarity,Positive*%
%FSLAX46Y46*%
G04 Gerber Fmt 4.6, Leading zero omitted, Abs format (unit mm)*
G04 Created by KiCad (PCBNEW 7.0.8) date 2024-08-08 21:44:56*
%MOMM*%
%LPD*%
G01*
G04 APERTURE LIST*
%TA.AperFunction,ComponentPad*%
%ADD10C,1.230000*%
%TD*%
%TA.AperFunction,ComponentPad*%
%ADD11C,1.300000*%
%TD*%
%TA.AperFunction,ComponentPad*%
%ADD12C,1.600000*%
%TD*%
%TA.AperFunction,ComponentPad*%
%ADD13O,1.600000X1.600000*%
%TD*%
%TA.AperFunction,ComponentPad*%
%ADD14C,1.800000*%
%TD*%
%TA.AperFunction,ComponentPad*%
%ADD15O,1.800000X1.800000*%
%TD*%
%TA.AperFunction,ComponentPad*%
%ADD16O,2.000000X4.000000*%
%TD*%
%TA.AperFunction,ComponentPad*%
%ADD17R,1.600000X1.600000*%
%TD*%
%TA.AperFunction,ComponentPad*%
%ADD18C,2.000000*%
%TD*%
%TA.AperFunction,ComponentPad*%
%ADD19R,1.800000X1.800000*%
%TD*%
%TA.AperFunction,ComponentPad*%
%ADD20R,1.500000X1.500000*%
%TD*%
%TA.AperFunction,ComponentPad*%
%ADD21C,1.500000*%
%TD*%
%TA.AperFunction,ViaPad*%
%ADD22C,0.600000*%
%TD*%
%TA.AperFunction,Conductor*%
%ADD23C,0.250000*%
%TD*%
G04 APERTURE END LIST*
D10*
%TO.P,C1,1*%
%TO.N,Net-(C1-Pad1)*%
X69470000Y-80830000D03*
D11*
%TO.P,C1,2*%
%TO.N,Net-(C1-Pad2)*%
X69470000Y-82830000D03*
%TD*%
D12*
%TO.P,R2,1*%
%TO.N,Net-(Q1-Pad1)*%
X56160000Y-69640000D03*
D13*
%TO.P,R2,2*%
%TO.N,Net-(C1-Pad1)*%
X63780000Y-69640000D03*
%TD*%
D12*
%TO.P,R3,1*%
%TO.N,Net-(C1-Pad1)*%
X56050000Y-74190000D03*
D13*
%TO.P,R3,2*%
%TO.N,Net-(C1-Pad2)*%
X63670000Y-74190000D03*
%TD*%
D14*
%TO.P,R4,1*%
%TO.N,Net-(D10-Pad1)*%
X58890000Y-89650000D03*
D15*
%TO.P,R4,2*%
%TO.N,Net-(C1-Pad2)*%
X66510000Y-89650000D03*
%TD*%
D16*
%TO.P,+9V,1*%
%TO.N,Net-(Q1-Pad3)*%
X73120000Y-90424000D03*
%TD*%
D17*
%TO.P,U2,1*%
%TO.N,Net-(C1-Pad2)*%
X71740000Y-66690000D03*
D13*
%TO.P,U2,2*%
%TO.N,Net-(C1-Pad1)*%
X71740000Y-69230000D03*
%TO.P,U2,3*%
%TO.N,Net-(U2-Pad3)*%
X71740000Y-71770000D03*
%TO.P,U2,4*%
%TO.N,Net-(Q1-Pad3)*%
X71740000Y-74310000D03*
%TO.P,U2,5*%
%TO.N,Net-(U2-Pad5)*%
X79360000Y-74310000D03*
%TO.P,U2,6*%
%TO.N,Net-(C1-Pad1)*%
X79360000Y-71770000D03*
%TO.P,U2,7*%
X79360000Y-69230000D03*
%TO.P,U2,8*%
%TO.N,Net-(Q1-Pad3)*%
X79360000Y-66690000D03*
%TD*%
D17*
%TO.P,U3,1*%
%TO.N,Net-(D6-Pad2)*%
X83845001Y-67615001D03*
D13*
%TO.P,U3,2*%
%TO.N,Net-(D2-Pad2)*%
X83845001Y-70155001D03*
%TO.P,U3,3*%
%TO.N,Net-(D1-Pad2)*%
X83845001Y-72695001D03*
%TO.P,U3,4*%
%TO.N,Net-(D3-Pad2)*%
X83845001Y-75235001D03*
%TO.P,U3,5*%
%TO.N,Net-(D7-Pad2)*%
X83845001Y-77775001D03*
%TO.P,U3,6*%
%TO.N,Net-(D8-Pad2)*%
X83845001Y-80315001D03*
%TO.P,U3,7*%
%TO.N,Net-(D4-Pad2)*%
X83845001Y-82855001D03*
%TO.P,U3,8*%
%TO.N,Net-(C1-Pad2)*%
X83845001Y-85395001D03*
%TO.P,U3,9*%
%TO.N,Net-(D9-Pad2)*%
X91465001Y-85395001D03*
%TO.P,U3,10*%
%TO.N,Net-(D5-Pad2)*%
X91465001Y-82855001D03*
%TO.P,U3,11*%
%TO.N,Net-(D10-Pad2)*%
X91465001Y-80315001D03*
%TO.P,U3,12*%
%TO.N,Net-(U3-Pad12)*%
X91465001Y-77775001D03*
%TO.P,U3,13*%
%TO.N,Net-(C1-Pad2)*%
X91465001Y-75235001D03*
%TO.P,U3,14*%
%TO.N,Net-(U2-Pad3)*%
X91465001Y-72695001D03*
%TO.P,U3,15*%
%TO.N,Net-(C1-Pad2)*%
X91465001Y-70155001D03*
%TO.P,U3,16*%
%TO.N,Net-(Q1-Pad3)*%
X91465001Y-67615001D03*
%TD*%
D16*
%TO.P,0V,1*%
%TO.N,Net-(C1-Pad2)*%
X78740000Y-90424000D03*
%TD*%
D18*
%TO.P,S1,1*%
%TO.N,Net-(Q1-Pad3)*%
X84500000Y-57000000D03*
%TO.N,N/C*%
X91000000Y-57000000D03*
%TO.P,S1,2*%
%TO.N,Net-(C2-Pad1)*%
X84500000Y-61500000D03*
%TO.N,N/C*%
X91000000Y-61500000D03*
%TD*%
D11*
%TO.P,C2,1*%
%TO.N,Net-(C2-Pad1)*%
X58674000Y-81280000D03*
%TO.P,C2,2*%
%TO.N,Net-(C1-Pad2)*%
X58674000Y-83280000D03*
%TD*%
D18*
%TO.P,LP,1*%
%TO.N,N/C*%
X73152000Y-98806000D03*
%TD*%
%TO.P,LP,1*%
%TO.N,N/C*%
X78740000Y-98806000D03*
%TD*%
%TO.P,LP,1*%
%TO.N,N/C*%
X78740000Y-94996000D03*
%TD*%
D12*
%TO.P,R1,1*%
%TO.N,Net-(C2-Pad1)*%
X56280000Y-65090000D03*
D13*
%TO.P,R1,2*%
%TO.N,Net-(C1-Pad2)*%
X63900000Y-65090000D03*
%TD*%
D18*
%TO.P,LP,1*%
%TO.N,N/C*%
X73152000Y-94996000D03*
%TD*%
D19*
%TO.P,1,1*%
%TO.N,Net-(D10-Pad1)*%
X73830000Y-46940000D03*
D14*
%TO.P,1,2*%
%TO.N,Net-(D1-Pad2)*%
X71290000Y-46940000D03*
%TD*%
D19*
%TO.P,2,1*%
%TO.N,Net-(D10-Pad1)*%
X90110000Y-51670000D03*
D14*
%TO.P,2,2*%
%TO.N,Net-(D2-Pad2)*%
X87570000Y-51670000D03*
%TD*%
D19*
%TO.P,3,1*%
%TO.N,Net-(D10-Pad1)*%
X100410000Y-66210000D03*
D14*
%TO.P,3,2*%
%TO.N,Net-(D3-Pad2)*%
X97870000Y-66210000D03*
%TD*%
D19*
%TO.P,4,1*%
%TO.N,Net-(D10-Pad1)*%
X100320000Y-83050000D03*
D14*
%TO.P,4,2*%
%TO.N,Net-(D4-Pad2)*%
X97780000Y-83050000D03*
%TD*%
D19*
%TO.P,5,1*%
%TO.N,Net-(D10-Pad1)*%
X90260000Y-96920000D03*
D14*
%TO.P,5,2*%
%TO.N,Net-(D5-Pad2)*%
X87720000Y-96920000D03*
%TD*%
D19*
%TO.P,6,1*%
%TO.N,Net-(D10-Pad1)*%
X72490000Y-103500000D03*
D14*
%TO.P,6,2*%
%TO.N,Net-(D6-Pad2)*%
X72490000Y-106040000D03*
%TD*%
D19*
%TO.P,7,1*%
%TO.N,Net-(D10-Pad1)*%
X56570000Y-98410000D03*
D14*
%TO.P,7,2*%
%TO.N,Net-(D7-Pad2)*%
X56570000Y-100950000D03*
%TD*%
D19*
%TO.P,8,1*%
%TO.N,Net-(D10-Pad1)*%
X44810000Y-83090000D03*
D14*
%TO.P,8,2*%
%TO.N,Net-(D8-Pad2)*%
X47350000Y-83090000D03*
%TD*%
D19*
%TO.P,9,1*%
%TO.N,Net-(D10-Pad1)*%
X44810000Y-65800000D03*
D14*
%TO.P,9,2*%
%TO.N,Net-(D9-Pad2)*%
X47350000Y-65800000D03*
%TD*%
D19*
%TO.P,10,1*%
%TO.N,Net-(D10-Pad1)*%
X54760000Y-51990000D03*
D14*
%TO.P,10,2*%
%TO.N,Net-(D10-Pad2)*%
X57300000Y-51990000D03*
%TD*%
D20*
%TO.P,REF\u002A\u002A,1*%
%TO.N,Net-(Q1-Pad1)*%
X58677000Y-59961000D03*
D21*
%TO.P,REF\u002A\u002A,2*%
%TO.N,Net-(C2-Pad1)*%
X57280000Y-57929000D03*
%TO.P,REF\u002A\u002A,3*%
%TO.N,Net-(Q1-Pad3)*%
X55629000Y-60088000D03*
%TD*%
D22*
%TO.N,Net-(C2-Pad1)*%
X84000000Y-53000000D03*
%TO.N,Net-(D5-Pad2)*%
X94996000Y-84328000D03*
%TO.N,Net-(D6-Pad2)*%
X84550000Y-90750000D03*
%TO.N,Net-(D8-Pad2)*%
X77700000Y-77980000D03*
%TO.N,Net-(D9-Pad2)*%
X90310000Y-90320000D03*
X84500000Y-96720000D03*
%TO.N,Net-(Q1-Pad3)*%
X61970000Y-62100000D03*
%TD*%
D23*
%TO.N,Net-(C1-Pad1)*%
X71740000Y-69230000D02*
X79360000Y-69230000D01*
X57790000Y-74190000D02*
X60870000Y-71110000D01*
X64190000Y-69230000D02*
X63780000Y-69640000D01*
X62310000Y-71110000D02*
X63780000Y-69640000D01*
X71740000Y-69230000D02*
X64190000Y-69230000D01*
X79360000Y-69230000D02*
X79360000Y-71770000D01*
X60870000Y-71110000D02*
X62310000Y-71110000D01*
X56050000Y-74190000D02*
X57790000Y-74190000D01*
%TO.N,Net-(C2-Pad1)*%
X86500000Y-59500000D02*
X86500000Y-56000000D01*
X86500000Y-56000000D02*
X86500000Y-55500000D01*
X84500000Y-61500000D02*
X86500000Y-59500000D01*
X86500000Y-55500000D02*
X84000000Y-53000000D01*
%TO.N,Net-(D1-Pad2)*%
X81770000Y-70620000D02*
X83845001Y-72695001D01*
X78380000Y-43920000D02*
X81770000Y-47310000D01*
X81770000Y-47310000D02*
X81770000Y-70620000D01*
X71290000Y-46940000D02*
X74310000Y-43920000D01*
X74310000Y-43920000D02*
X78380000Y-43920000D01*
%TO.N,Net-(D2-Pad2)*%
X87570000Y-51670000D02*
X87570000Y-67760000D01*
X87570000Y-67760000D02*
X85174999Y-70155001D01*
X85174999Y-70155001D02*
X83845001Y-70155001D01*
%TO.N,Net-(D3-Pad2)*%
X97160000Y-65500000D02*
X97870000Y-66210000D01*
X88455000Y-74455000D02*
X88455000Y-67045000D01*
X88780000Y-74130000D02*
X88455000Y-74455000D01*
X88455000Y-67045000D02*
X90000000Y-65500000D01*
X88455000Y-74455000D02*
X87674999Y-75235001D01*
X87674999Y-75235001D02*
X83845001Y-75235001D01*
X90000000Y-65500000D02*
X97160000Y-65500000D01*
%TO.N,Net-(D4-Pad2)*%
X97780000Y-83050000D02*
X97780000Y-86330000D01*
X86460000Y-87010000D02*
X86460000Y-83350000D01*
X86460000Y-83350000D02*
X85965001Y-82855001D01*
X85965001Y-82855001D02*
X83845001Y-82855001D01*
X97780000Y-86330000D02*
X95550000Y-88560000D01*
X88010000Y-88560000D02*
X86460000Y-87010000D01*
X95550000Y-88560000D02*
X88010000Y-88560000D01*
%TO.N,Net-(D5-Pad2)*%
X94996000Y-84328000D02*
X93726000Y-84328000D01*
X93726000Y-84328000D02*
X92253001Y-82855001D01*
X92253001Y-82855001D02*
X91465001Y-82855001D01*
%TO.N,Net-(D6-Pad2)*%
X70440000Y-100960000D02*
X73010000Y-100960000D01*
X82540000Y-98380000D02*
X79960000Y-100960000D01*
X69630000Y-101770000D02*
X70440000Y-100960000D01*
X72490000Y-106040000D02*
X71030000Y-106040000D01*
X79960000Y-100960000D02*
X73010000Y-100960000D01*
X82540000Y-92760000D02*
X82540000Y-98380000D01*
X71030000Y-106040000D02*
X69630000Y-104640000D01*
X69630000Y-104640000D02*
X69630000Y-101770000D01*
X73010000Y-100960000D02*
X72490000Y-100960000D01*
X84550000Y-90750000D02*
X82540000Y-92760000D01*
%TO.N,Net-(D7-Pad2)*%
X53100000Y-96430000D02*
X53660000Y-95870000D01*
X65166000Y-95870000D02*
X55992000Y-95870000D01*
X56570000Y-100950000D02*
X54590000Y-100950000D01*
X65420000Y-95870000D02*
X65166000Y-95870000D01*
X75480000Y-81220000D02*
X75480000Y-85810000D01*
X71416000Y-85810000D02*
X68834000Y-88392000D01*
X78924999Y-77775001D02*
X83845001Y-77775001D01*
X55992000Y-95870000D02*
X56760000Y-95870000D01*
X53660000Y-95870000D02*
X55992000Y-95870000D01*
X75480000Y-81220000D02*
X78924999Y-77775001D01*
X56570000Y-95870000D02*
X56760000Y-95870000D01*
X53100000Y-99460000D02*
X53100000Y-96430000D01*
X68834000Y-92202000D02*
X65166000Y-95870000D01*
X68834000Y-88392000D02*
X68834000Y-92202000D01*
X75480000Y-85810000D02*
X71416000Y-85810000D01*
X54590000Y-100950000D02*
X53100000Y-99460000D01*
%TO.N,Net-(D8-Pad2)*%
X77020000Y-77300000D02*
X53140000Y-77300000D01*
X53140000Y-77300000D02*
X47350000Y-83090000D01*
X77700000Y-77980000D02*
X77020000Y-77300000D01*
%TO.N,Net-(D9-Pad2)*%
X84870000Y-96350000D02*
X84870000Y-93240000D01*
X87750000Y-90360000D02*
X90270000Y-90360000D01*
X84500000Y-96720000D02*
X84870000Y-96350000D01*
X90270000Y-90360000D02*
X90310000Y-90320000D01*
X84870000Y-93240000D02*
X87750000Y-90360000D01*
%TO.N,Net-(D10-Pad2)*%
X103600000Y-61950000D02*
X103600000Y-71930000D01*
X101910000Y-60260000D02*
X103600000Y-61950000D01*
X73953590Y-43640000D02*
X74123600Y-43469990D01*
X57300000Y-47770000D02*
X61430000Y-43640000D01*
X101910000Y-59990000D02*
X101910000Y-60260000D01*
X74123600Y-43469990D02*
X81919990Y-43469990D01*
X94650000Y-78870000D02*
X93204999Y-80315001D01*
X86200000Y-47750000D02*
X89670000Y-47750000D01*
X93204999Y-80315001D02*
X91465001Y-80315001D01*
X103600000Y-71930000D02*
X96660000Y-78870000D01*
X96660000Y-78870000D02*
X94650000Y-78870000D01*
X57300000Y-51990000D02*
X57300000Y-47770000D01*
X81919990Y-43469990D02*
X86200000Y-47750000D01*
X61430000Y-43640000D02*
X73953590Y-43640000D01*
X89670000Y-47750000D02*
X101910000Y-59990000D01*
%TO.N,Net-(Q1-Pad3)*%
X56470000Y-62100000D02*
X55629000Y-61259000D01*
X55629000Y-61259000D02*
X55629000Y-60088000D01*
X61970000Y-62100000D02*
X56470000Y-62100000D01*
%TO.N,Net-(U2-Pad3)*%
X76570000Y-73620000D02*
X76570000Y-75460000D01*
X76570000Y-75460000D02*
X77760000Y-76650000D01*
X88740000Y-76650000D02*
X89740000Y-75650000D01*
X77760000Y-76650000D02*
X88740000Y-76650000D01*
X90534999Y-72695001D02*
X91465001Y-72695001D01*
X89740000Y-73490000D02*
X90534999Y-72695001D01*
X71740000Y-71770000D02*
X74720000Y-71770000D01*
X89740000Y-75650000D02*
X89740000Y-73490000D01*
X74720000Y-71770000D02*
X76570000Y-73620000D01*
%TD*%
M02*
