M48
; DRILL file {KiCad 7.0.8} date Thu Aug  8 21:44:59 2024
; FORMAT={3:3/ absolute / metric / suppress leading zeros}
; #@! TF.CreationDate,2024-08-08T21:44:59+02:00
; #@! TF.GenerationSoftware,Kicad,Pcbnew,7.0.8
; #@! TF.FileFunction,MixedPlating,1,2
FMAT,2
METRIC,TZ
; #@! TA.AperFunction,Plated,PTH,ViaDrill
T1C0.400
; #@! TA.AperFunction,Plated,PTH,ComponentDrill
T2C0.800
; #@! TA.AperFunction,Plated,PTH,ComponentDrill
T3C0.900
; #@! TA.AperFunction,Plated,PTH,ComponentDrill
T4C1.000
; #@! TA.AperFunction,Plated,PTH,ComponentDrill
T5C1.100
; #@! TA.AperFunction,Plated,PTH,ComponentDrill
T6C1.500
%
G90
G05
T1
X61970Y-62100
X77700Y-77980
X84000Y-53000
X84500Y-96720
X84550Y-90750
X90310Y-90320
X94996Y-84328
T2
X55629Y-60088
X57280Y-57929
X58674Y-81280
X58674Y-83280
X58677Y-59961
X69470Y-80830
X69470Y-82830
X71740Y-66690
X71740Y-69230
X71740Y-71770
X71740Y-74310
X79360Y-66690
X79360Y-69230
X79360Y-71770
X79360Y-74310
X83845Y-67615
X83845Y-70155
X83845Y-72695
X83845Y-75235
X83845Y-77775
X83845Y-80315
X83845Y-82855
X83845Y-85395
X91465Y-67615
X91465Y-70155
X91465Y-72695
X91465Y-75235
X91465Y-77775
X91465Y-80315
X91465Y-82855
X91465Y-85395
T3
X44810Y-65800
X44810Y-83090
X47350Y-65800
X47350Y-83090
X54760Y-51990
X56570Y-98410
X56570Y-100950
X57300Y-51990
X71290Y-46940
X72490Y-103500
X72490Y-106040
X73830Y-46940
X87570Y-51670
X87720Y-96920
X90110Y-51670
X90260Y-96920
X97780Y-83050
X97870Y-66210
X100320Y-83050
X100410Y-66210
T4
X56050Y-74190
X56160Y-69640
X56280Y-65090
X58890Y-89650
X63670Y-74190
X63780Y-69640
X63900Y-65090
X66510Y-89650
X73120Y-90424
X78740Y-90424
T5
X84500Y-57000
X84500Y-61500
X91000Y-57000
X91000Y-61500
T6
X73152Y-94996
X73152Y-98806
X78740Y-94996
X78740Y-98806
T0
M30
