%TF.GenerationSoftware,KiCad,Pcbnew,8.0.1*%
%TF.CreationDate,2024-04-02T10:16:43+02:00*%
%TF.ProjectId,GluecksraD,476c7565-636b-4737-9261-442e6b696361,rev?*%
%TF.SameCoordinates,Original*%
%TF.FileFunction,Legend,Bot*%
%TF.FilePolarity,Positive*%
%FSLAX46Y46*%
G04 Gerber Fmt 4.6, Leading zero omitted, Abs format (unit mm)*
G04 Created by KiCad (PCBNEW 8.0.1) date 2024-04-02 10:16:43*
%MOMM*%
%LPD*%
G01*
G04 APERTURE LIST*
%ADD10C,0.300000*%
%ADD11C,0.050000*%
%ADD12C,0.120000*%
%ADD13C,0.010000*%
G04 APERTURE END LIST*
D10*
X79701905Y-58749638D02*
X80654286Y-58749638D01*
X80654286Y-58749638D02*
X80654286Y-56749638D01*
X78178095Y-57416304D02*
X78178095Y-58749638D01*
X79035238Y-57416304D02*
X79035238Y-58463923D01*
X79035238Y-58463923D02*
X78940000Y-58654400D01*
X78940000Y-58654400D02*
X78749524Y-58749638D01*
X78749524Y-58749638D02*
X78463809Y-58749638D01*
X78463809Y-58749638D02*
X78273333Y-58654400D01*
X78273333Y-58654400D02*
X78178095Y-58559161D01*
X76368571Y-58654400D02*
X76559047Y-58749638D01*
X76559047Y-58749638D02*
X76940000Y-58749638D01*
X76940000Y-58749638D02*
X77130476Y-58654400D01*
X77130476Y-58654400D02*
X77225714Y-58559161D01*
X77225714Y-58559161D02*
X77320952Y-58368685D01*
X77320952Y-58368685D02*
X77320952Y-57797257D01*
X77320952Y-57797257D02*
X77225714Y-57606780D01*
X77225714Y-57606780D02*
X77130476Y-57511542D01*
X77130476Y-57511542D02*
X76940000Y-57416304D01*
X76940000Y-57416304D02*
X76559047Y-57416304D01*
X76559047Y-57416304D02*
X76368571Y-57511542D01*
X75511428Y-58749638D02*
X75511428Y-56749638D01*
X75320952Y-57987733D02*
X74749523Y-58749638D01*
X74749523Y-57416304D02*
X75511428Y-58178209D01*
X74082856Y-57416304D02*
X73606666Y-58749638D01*
X73130475Y-57416304D02*
X73606666Y-58749638D01*
X73606666Y-58749638D02*
X73797142Y-59225828D01*
X73797142Y-59225828D02*
X73892380Y-59321066D01*
X73892380Y-59321066D02*
X74082856Y-59416304D01*
X71035236Y-56749638D02*
X70559046Y-58749638D01*
X70559046Y-58749638D02*
X70178093Y-57321066D01*
X70178093Y-57321066D02*
X69797141Y-58749638D01*
X69797141Y-58749638D02*
X69320951Y-56749638D01*
X68559046Y-58749638D02*
X68559046Y-56749638D01*
X67701903Y-58749638D02*
X67701903Y-57702019D01*
X67701903Y-57702019D02*
X67797141Y-57511542D01*
X67797141Y-57511542D02*
X67987617Y-57416304D01*
X67987617Y-57416304D02*
X68273332Y-57416304D01*
X68273332Y-57416304D02*
X68463808Y-57511542D01*
X68463808Y-57511542D02*
X68559046Y-57606780D01*
X65987617Y-58654400D02*
X66178093Y-58749638D01*
X66178093Y-58749638D02*
X66559046Y-58749638D01*
X66559046Y-58749638D02*
X66749522Y-58654400D01*
X66749522Y-58654400D02*
X66844760Y-58463923D01*
X66844760Y-58463923D02*
X66844760Y-57702019D01*
X66844760Y-57702019D02*
X66749522Y-57511542D01*
X66749522Y-57511542D02*
X66559046Y-57416304D01*
X66559046Y-57416304D02*
X66178093Y-57416304D01*
X66178093Y-57416304D02*
X65987617Y-57511542D01*
X65987617Y-57511542D02*
X65892379Y-57702019D01*
X65892379Y-57702019D02*
X65892379Y-57892495D01*
X65892379Y-57892495D02*
X66844760Y-58082971D01*
X64273331Y-58654400D02*
X64463807Y-58749638D01*
X64463807Y-58749638D02*
X64844760Y-58749638D01*
X64844760Y-58749638D02*
X65035236Y-58654400D01*
X65035236Y-58654400D02*
X65130474Y-58463923D01*
X65130474Y-58463923D02*
X65130474Y-57702019D01*
X65130474Y-57702019D02*
X65035236Y-57511542D01*
X65035236Y-57511542D02*
X64844760Y-57416304D01*
X64844760Y-57416304D02*
X64463807Y-57416304D01*
X64463807Y-57416304D02*
X64273331Y-57511542D01*
X64273331Y-57511542D02*
X64178093Y-57702019D01*
X64178093Y-57702019D02*
X64178093Y-57892495D01*
X64178093Y-57892495D02*
X65130474Y-58082971D01*
X63035236Y-58749638D02*
X63225712Y-58654400D01*
X63225712Y-58654400D02*
X63320950Y-58463923D01*
X63320950Y-58463923D02*
X63320950Y-56749638D01*
X66388571Y-47799638D02*
X67531428Y-47799638D01*
X66960000Y-47799638D02*
X66960000Y-45799638D01*
X66960000Y-45799638D02*
X67150476Y-46085352D01*
X67150476Y-46085352D02*
X67340952Y-46275828D01*
X67340952Y-46275828D02*
X67531428Y-46371066D01*
X51521428Y-51100114D02*
X51426190Y-51004876D01*
X51426190Y-51004876D02*
X51235714Y-50909638D01*
X51235714Y-50909638D02*
X50759523Y-50909638D01*
X50759523Y-50909638D02*
X50569047Y-51004876D01*
X50569047Y-51004876D02*
X50473809Y-51100114D01*
X50473809Y-51100114D02*
X50378571Y-51290590D01*
X50378571Y-51290590D02*
X50378571Y-51481066D01*
X50378571Y-51481066D02*
X50473809Y-51766780D01*
X50473809Y-51766780D02*
X51616666Y-52909638D01*
X51616666Y-52909638D02*
X50378571Y-52909638D01*
X42236666Y-64909638D02*
X40998571Y-64909638D01*
X40998571Y-64909638D02*
X41665238Y-65671542D01*
X41665238Y-65671542D02*
X41379523Y-65671542D01*
X41379523Y-65671542D02*
X41189047Y-65766780D01*
X41189047Y-65766780D02*
X41093809Y-65862019D01*
X41093809Y-65862019D02*
X40998571Y-66052495D01*
X40998571Y-66052495D02*
X40998571Y-66528685D01*
X40998571Y-66528685D02*
X41093809Y-66719161D01*
X41093809Y-66719161D02*
X41189047Y-66814400D01*
X41189047Y-66814400D02*
X41379523Y-66909638D01*
X41379523Y-66909638D02*
X41950952Y-66909638D01*
X41950952Y-66909638D02*
X42141428Y-66814400D01*
X42141428Y-66814400D02*
X42236666Y-66719161D01*
X41089047Y-82626304D02*
X41089047Y-83959638D01*
X41565238Y-81864400D02*
X42041428Y-83292971D01*
X42041428Y-83292971D02*
X40803333Y-83292971D01*
X50943809Y-96449638D02*
X51896190Y-96449638D01*
X51896190Y-96449638D02*
X51991428Y-97402019D01*
X51991428Y-97402019D02*
X51896190Y-97306780D01*
X51896190Y-97306780D02*
X51705714Y-97211542D01*
X51705714Y-97211542D02*
X51229523Y-97211542D01*
X51229523Y-97211542D02*
X51039047Y-97306780D01*
X51039047Y-97306780D02*
X50943809Y-97402019D01*
X50943809Y-97402019D02*
X50848571Y-97592495D01*
X50848571Y-97592495D02*
X50848571Y-98068685D01*
X50848571Y-98068685D02*
X50943809Y-98259161D01*
X50943809Y-98259161D02*
X51039047Y-98354400D01*
X51039047Y-98354400D02*
X51229523Y-98449638D01*
X51229523Y-98449638D02*
X51705714Y-98449638D01*
X51705714Y-98449638D02*
X51896190Y-98354400D01*
X51896190Y-98354400D02*
X51991428Y-98259161D01*
X67339047Y-103749638D02*
X67720000Y-103749638D01*
X67720000Y-103749638D02*
X67910476Y-103844876D01*
X67910476Y-103844876D02*
X68005714Y-103940114D01*
X68005714Y-103940114D02*
X68196190Y-104225828D01*
X68196190Y-104225828D02*
X68291428Y-104606780D01*
X68291428Y-104606780D02*
X68291428Y-105368685D01*
X68291428Y-105368685D02*
X68196190Y-105559161D01*
X68196190Y-105559161D02*
X68100952Y-105654400D01*
X68100952Y-105654400D02*
X67910476Y-105749638D01*
X67910476Y-105749638D02*
X67529523Y-105749638D01*
X67529523Y-105749638D02*
X67339047Y-105654400D01*
X67339047Y-105654400D02*
X67243809Y-105559161D01*
X67243809Y-105559161D02*
X67148571Y-105368685D01*
X67148571Y-105368685D02*
X67148571Y-104892495D01*
X67148571Y-104892495D02*
X67243809Y-104702019D01*
X67243809Y-104702019D02*
X67339047Y-104606780D01*
X67339047Y-104606780D02*
X67529523Y-104511542D01*
X67529523Y-104511542D02*
X67910476Y-104511542D01*
X67910476Y-104511542D02*
X68100952Y-104606780D01*
X68100952Y-104606780D02*
X68196190Y-104702019D01*
X68196190Y-104702019D02*
X68291428Y-104892495D01*
X95006666Y-96079638D02*
X93673333Y-96079638D01*
X93673333Y-96079638D02*
X94530476Y-98079638D01*
X103910476Y-82716780D02*
X104100952Y-82621542D01*
X104100952Y-82621542D02*
X104196190Y-82526304D01*
X104196190Y-82526304D02*
X104291428Y-82335828D01*
X104291428Y-82335828D02*
X104291428Y-82240590D01*
X104291428Y-82240590D02*
X104196190Y-82050114D01*
X104196190Y-82050114D02*
X104100952Y-81954876D01*
X104100952Y-81954876D02*
X103910476Y-81859638D01*
X103910476Y-81859638D02*
X103529523Y-81859638D01*
X103529523Y-81859638D02*
X103339047Y-81954876D01*
X103339047Y-81954876D02*
X103243809Y-82050114D01*
X103243809Y-82050114D02*
X103148571Y-82240590D01*
X103148571Y-82240590D02*
X103148571Y-82335828D01*
X103148571Y-82335828D02*
X103243809Y-82526304D01*
X103243809Y-82526304D02*
X103339047Y-82621542D01*
X103339047Y-82621542D02*
X103529523Y-82716780D01*
X103529523Y-82716780D02*
X103910476Y-82716780D01*
X103910476Y-82716780D02*
X104100952Y-82812019D01*
X104100952Y-82812019D02*
X104196190Y-82907257D01*
X104196190Y-82907257D02*
X104291428Y-83097733D01*
X104291428Y-83097733D02*
X104291428Y-83478685D01*
X104291428Y-83478685D02*
X104196190Y-83669161D01*
X104196190Y-83669161D02*
X104100952Y-83764400D01*
X104100952Y-83764400D02*
X103910476Y-83859638D01*
X103910476Y-83859638D02*
X103529523Y-83859638D01*
X103529523Y-83859638D02*
X103339047Y-83764400D01*
X103339047Y-83764400D02*
X103243809Y-83669161D01*
X103243809Y-83669161D02*
X103148571Y-83478685D01*
X103148571Y-83478685D02*
X103148571Y-83097733D01*
X103148571Y-83097733D02*
X103243809Y-82907257D01*
X103243809Y-82907257D02*
X103339047Y-82812019D01*
X103339047Y-82812019D02*
X103529523Y-82716780D01*
X104000952Y-67469638D02*
X103620000Y-67469638D01*
X103620000Y-67469638D02*
X103429523Y-67374400D01*
X103429523Y-67374400D02*
X103334285Y-67279161D01*
X103334285Y-67279161D02*
X103143809Y-66993447D01*
X103143809Y-66993447D02*
X103048571Y-66612495D01*
X103048571Y-66612495D02*
X103048571Y-65850590D01*
X103048571Y-65850590D02*
X103143809Y-65660114D01*
X103143809Y-65660114D02*
X103239047Y-65564876D01*
X103239047Y-65564876D02*
X103429523Y-65469638D01*
X103429523Y-65469638D02*
X103810476Y-65469638D01*
X103810476Y-65469638D02*
X104000952Y-65564876D01*
X104000952Y-65564876D02*
X104096190Y-65660114D01*
X104096190Y-65660114D02*
X104191428Y-65850590D01*
X104191428Y-65850590D02*
X104191428Y-66326780D01*
X104191428Y-66326780D02*
X104096190Y-66517257D01*
X104096190Y-66517257D02*
X104000952Y-66612495D01*
X104000952Y-66612495D02*
X103810476Y-66707733D01*
X103810476Y-66707733D02*
X103429523Y-66707733D01*
X103429523Y-66707733D02*
X103239047Y-66612495D01*
X103239047Y-66612495D02*
X103143809Y-66517257D01*
X103143809Y-66517257D02*
X103048571Y-66326780D01*
X94910952Y-53169638D02*
X96053809Y-53169638D01*
X95482381Y-53169638D02*
X95482381Y-51169638D01*
X95482381Y-51169638D02*
X95672857Y-51455352D01*
X95672857Y-51455352D02*
X95863333Y-51645828D01*
X95863333Y-51645828D02*
X96053809Y-51741066D01*
X93672857Y-51169638D02*
X93482380Y-51169638D01*
X93482380Y-51169638D02*
X93291904Y-51264876D01*
X93291904Y-51264876D02*
X93196666Y-51360114D01*
X93196666Y-51360114D02*
X93101428Y-51550590D01*
X93101428Y-51550590D02*
X93006190Y-51931542D01*
X93006190Y-51931542D02*
X93006190Y-52407733D01*
X93006190Y-52407733D02*
X93101428Y-52788685D01*
X93101428Y-52788685D02*
X93196666Y-52979161D01*
X93196666Y-52979161D02*
X93291904Y-53074400D01*
X93291904Y-53074400D02*
X93482380Y-53169638D01*
X93482380Y-53169638D02*
X93672857Y-53169638D01*
X93672857Y-53169638D02*
X93863333Y-53074400D01*
X93863333Y-53074400D02*
X93958571Y-52979161D01*
X93958571Y-52979161D02*
X94053809Y-52788685D01*
X94053809Y-52788685D02*
X94149047Y-52407733D01*
X94149047Y-52407733D02*
X94149047Y-51931542D01*
X94149047Y-51931542D02*
X94053809Y-51550590D01*
X94053809Y-51550590D02*
X93958571Y-51360114D01*
X93958571Y-51360114D02*
X93863333Y-51264876D01*
X93863333Y-51264876D02*
X93672857Y-51169638D01*
D11*
%TO.C,G\u002A\u002A\u002A*%
X62425000Y-83142000D02*
X63000000Y-83617000D01*
X63000000Y-83617000D02*
X63425000Y-83292000D01*
X63425000Y-83292000D02*
X62425000Y-83142000D01*
D12*
X63750000Y-84730605D02*
X64650000Y-84717000D01*
X64149999Y-86112050D02*
X63749999Y-86112050D01*
X64150000Y-85117000D02*
X63900000Y-85117000D01*
X64150000Y-85167000D02*
X64150000Y-85617000D01*
X64150000Y-85617000D02*
X63850000Y-85617000D01*
X64150000Y-86117000D02*
X64150000Y-86617000D01*
X64150000Y-86617000D02*
X63700000Y-86617000D01*
D11*
X64375000Y-82417000D02*
X64725000Y-81242000D01*
D12*
X64650000Y-84717000D02*
X64700000Y-87167000D01*
X64700000Y-87167000D02*
X63500000Y-87167000D01*
D11*
X64725000Y-81242000D02*
X66525000Y-81292000D01*
D12*
X64975000Y-87167000D02*
X65750000Y-84717000D01*
X65375000Y-87167000D02*
X64975000Y-87167000D01*
X65625000Y-86567000D02*
X65375000Y-87167000D01*
X65700000Y-86167000D02*
X65925000Y-85417000D01*
X65750000Y-84717000D02*
X66075000Y-84717000D01*
X65925000Y-85417000D02*
X66200000Y-86167000D01*
D11*
X65950000Y-83342000D02*
X67625000Y-83442000D01*
D12*
X66075000Y-84717000D02*
X66975000Y-87167000D01*
X66200000Y-86167000D02*
X65700000Y-86167000D01*
X66225000Y-86567000D02*
X65625000Y-86567000D01*
X66475000Y-87167000D02*
X66225000Y-86567000D01*
X66475000Y-87167000D02*
X66975000Y-87167000D01*
D11*
X66525000Y-81292000D02*
X64375000Y-82417000D01*
X66650000Y-82767000D02*
X65950000Y-83342000D01*
D12*
X67150000Y-86692000D02*
X67150000Y-87142000D01*
X67150000Y-87142000D02*
X68400000Y-87142000D01*
D11*
X67650000Y-83442000D02*
X66650000Y-82767000D01*
X67800000Y-82992000D02*
X69425000Y-84117000D01*
X67850000Y-80667000D02*
X68975000Y-81892000D01*
X67875000Y-80267000D02*
X67800000Y-82992000D01*
D12*
X67900000Y-86692000D02*
X67150000Y-86692000D01*
X67925000Y-84692000D02*
X67900000Y-86692000D01*
X68375000Y-84692000D02*
X67925000Y-84692000D01*
X68400000Y-87142000D02*
X68375000Y-84692000D01*
X68575000Y-87142000D02*
X69275000Y-86192000D01*
X68675000Y-87142000D02*
X68575000Y-87142000D01*
D11*
X68975000Y-81892000D02*
X68400000Y-83392000D01*
D12*
X69075000Y-87142000D02*
X68675000Y-87142000D01*
X69316269Y-84686594D02*
X70425000Y-84692000D01*
D11*
X69425000Y-84117000D02*
X71100000Y-83892000D01*
D12*
X69475000Y-85142000D02*
X69925000Y-85142000D01*
X69825000Y-86192000D02*
X69075000Y-87142000D01*
X69925000Y-85142000D02*
X69925000Y-85692000D01*
X69925000Y-85692000D02*
X69425000Y-85692000D01*
X69975000Y-86192000D02*
X69825000Y-86192000D01*
X69975000Y-87142000D02*
X69975000Y-86192000D01*
X70425000Y-84692000D02*
X70425000Y-87142000D01*
X70425000Y-87142000D02*
X69975000Y-87142000D01*
D11*
X70575000Y-84342000D02*
X71550000Y-84692000D01*
D12*
X70875000Y-84692000D02*
X72175000Y-84692000D01*
X70875000Y-85192000D02*
X70875000Y-84692000D01*
X70875000Y-86642000D02*
X71725000Y-86642000D01*
X70875000Y-87142000D02*
X70875000Y-86642000D01*
D11*
X70975000Y-84067000D02*
X70575000Y-84342000D01*
D12*
X71075000Y-85642000D02*
X71725000Y-85642000D01*
X71075000Y-86092000D02*
X71075000Y-85642000D01*
D11*
X71100000Y-83892000D02*
X72925000Y-84792000D01*
X71350000Y-81892000D02*
X67875000Y-80267000D01*
X71350000Y-81892000D02*
X73675000Y-83042000D01*
D12*
X71725000Y-85192000D02*
X70875000Y-85192000D01*
X71725000Y-85642000D02*
X71725000Y-85192000D01*
X71725000Y-86092000D02*
X71075000Y-86092000D01*
X71725000Y-86642000D02*
X71725000Y-86092000D01*
D11*
X71750000Y-84667000D02*
X70975000Y-84067000D01*
X72100000Y-80467000D02*
X71350000Y-81892000D01*
X72100000Y-80467000D02*
X74300000Y-81642000D01*
D12*
X72125000Y-87142000D02*
X70875000Y-87142000D01*
X72175000Y-84692000D02*
X72225000Y-87142000D01*
X72225000Y-87142000D02*
X72125000Y-87142000D01*
X73325000Y-84705605D02*
X74225000Y-84692000D01*
D11*
X73675000Y-83042000D02*
X75150000Y-84767000D01*
X73675000Y-83042000D02*
X79325000Y-85892000D01*
D12*
X73724999Y-86087050D02*
X73324999Y-86087050D01*
X73725000Y-85092000D02*
X73475000Y-85092000D01*
X73725000Y-85142000D02*
X73725000Y-85592000D01*
X73725000Y-85592000D02*
X73425000Y-85592000D01*
X73725000Y-86092000D02*
X73725000Y-86592000D01*
X73725000Y-86592000D02*
X73275000Y-86592000D01*
X74225000Y-84692000D02*
X74275000Y-87142000D01*
X74275000Y-87142000D02*
X73075000Y-87142000D01*
D11*
X74300000Y-81642000D02*
X72725000Y-82542000D01*
X74400000Y-81467000D02*
X73675000Y-83042000D01*
D12*
X74675000Y-85542000D02*
X74675000Y-86242000D01*
D11*
X74975000Y-84867000D02*
X67875000Y-80267000D01*
D12*
X75175000Y-85542000D02*
X75175000Y-86192000D01*
D11*
X75425000Y-81717000D02*
X73675000Y-83042000D01*
X75425000Y-81717000D02*
X74400000Y-81467000D01*
X75500000Y-85792000D02*
X75875000Y-85967000D01*
X75825000Y-85392000D02*
X75500000Y-85792000D01*
D12*
X75875000Y-85542000D02*
X75875000Y-86242000D01*
D11*
X76375000Y-86142000D02*
X76925000Y-86417000D01*
D12*
X76375000Y-86242000D02*
X76375000Y-85542000D01*
D11*
X76425000Y-85417000D02*
X76650000Y-86042000D01*
X76650000Y-86042000D02*
X79325000Y-85892000D01*
X76925000Y-86417000D02*
X76350000Y-85617000D01*
X78000000Y-86367000D02*
X77175000Y-86017000D01*
X79325000Y-85892000D02*
X75425000Y-81717000D01*
X79325000Y-85892000D02*
X76425000Y-85417000D01*
X79325000Y-85892000D02*
X78000000Y-86367000D01*
D12*
X63300001Y-85816999D02*
G75*
G02*
X63750000Y-84730606I449999J449999D01*
G01*
X63500001Y-87166998D02*
G75*
G02*
X63323744Y-85858064I249998J699998D01*
G01*
X63700001Y-86616998D02*
G75*
G02*
X63749999Y-86112051I49999J249998D01*
G01*
X63850000Y-85617000D02*
G75*
G02*
X63910634Y-85124464I0J250000D01*
G01*
X69300001Y-86141998D02*
G75*
G02*
X69316269Y-84686595I249999J724998D01*
G01*
X69425001Y-85691998D02*
G75*
G02*
X69425001Y-85142002I124999J274998D01*
G01*
X72875001Y-85791999D02*
G75*
G02*
X73325000Y-84705606I449999J449999D01*
G01*
X73075001Y-87141998D02*
G75*
G02*
X72898744Y-85833064I249998J699998D01*
G01*
X73275001Y-86591998D02*
G75*
G02*
X73324999Y-86087051I49999J249998D01*
G01*
X73425000Y-85592000D02*
G75*
G02*
X73485634Y-85099464I0J250000D01*
G01*
X74675000Y-85542000D02*
G75*
G02*
X76375000Y-85542000I850000J0D01*
G01*
X75175000Y-85542000D02*
G75*
G02*
X75875000Y-85542000I350000J0D01*
G01*
X75875000Y-86242000D02*
G75*
G02*
X75175000Y-86242000I-350000J0D01*
G01*
X76375000Y-86242000D02*
G75*
G02*
X74675000Y-86242000I-850000J0D01*
G01*
D13*
X84872361Y-140137226D02*
X84808542Y-140201045D01*
X84744723Y-140137226D01*
X84808542Y-140073407D01*
X84872361Y-140137226D01*
G36*
X84872361Y-140137226D02*
G01*
X84808542Y-140201045D01*
X84744723Y-140137226D01*
X84808542Y-140073407D01*
X84872361Y-140137226D01*
G37*
D12*
%TO.C,1*%
X75120000Y-45395000D02*
X75120000Y-48485000D01*
X75119999Y-48484830D02*
G75*
G02*
X69570001Y-46939538I-2559999J1544830D01*
G01*
X69570000Y-46940462D02*
G75*
G02*
X75120000Y-45395170I2990000J462D01*
G01*
X75060000Y-46940000D02*
G75*
G02*
X70060000Y-46940000I-2500000J0D01*
G01*
X70060000Y-46940000D02*
G75*
G02*
X75060000Y-46940000I2500000J0D01*
G01*
%TO.C,2*%
X91400000Y-50125000D02*
X91400000Y-53215000D01*
X91399999Y-53214830D02*
G75*
G02*
X85850001Y-51669538I-2559999J1544830D01*
G01*
X85850000Y-51670462D02*
G75*
G02*
X91400000Y-50125170I2990000J462D01*
G01*
X91340000Y-51670000D02*
G75*
G02*
X86340000Y-51670000I-2500000J0D01*
G01*
X86340000Y-51670000D02*
G75*
G02*
X91340000Y-51670000I2500000J0D01*
G01*
%TO.C,3*%
X101700000Y-64665000D02*
X101700000Y-67755000D01*
X101699999Y-67754830D02*
G75*
G02*
X96150001Y-66209538I-2559999J1544830D01*
G01*
X96150000Y-66210462D02*
G75*
G02*
X101700000Y-64665170I2990000J462D01*
G01*
X101640000Y-66210000D02*
G75*
G02*
X96640000Y-66210000I-2500000J0D01*
G01*
X96640000Y-66210000D02*
G75*
G02*
X101640000Y-66210000I2500000J0D01*
G01*
%TO.C,4*%
X101610000Y-81505000D02*
X101610000Y-84595000D01*
X101609999Y-84594830D02*
G75*
G02*
X96060001Y-83049538I-2559999J1544830D01*
G01*
X96060000Y-83050462D02*
G75*
G02*
X101610000Y-81505170I2990000J462D01*
G01*
X101550000Y-83050000D02*
G75*
G02*
X96550000Y-83050000I-2500000J0D01*
G01*
X96550000Y-83050000D02*
G75*
G02*
X101550000Y-83050000I2500000J0D01*
G01*
%TO.C,5*%
X91550000Y-95375000D02*
X91550000Y-98465000D01*
X91549999Y-98464830D02*
G75*
G02*
X86000001Y-96919538I-2559999J1544830D01*
G01*
X86000000Y-96920462D02*
G75*
G02*
X91550000Y-95375170I2990000J462D01*
G01*
X91490000Y-96920000D02*
G75*
G02*
X86490000Y-96920000I-2500000J0D01*
G01*
X86490000Y-96920000D02*
G75*
G02*
X91490000Y-96920000I2500000J0D01*
G01*
%TO.C,6*%
X70945000Y-102210000D02*
X74035000Y-102210000D01*
X74034830Y-102210001D02*
G75*
G02*
X72489538Y-107759999I-1544830J-2559999D01*
G01*
X72490462Y-107760000D02*
G75*
G02*
X70945170Y-102210000I-462J2990000D01*
G01*
X74990000Y-104770000D02*
G75*
G02*
X69990000Y-104770000I-2500000J0D01*
G01*
X69990000Y-104770000D02*
G75*
G02*
X74990000Y-104770000I2500000J0D01*
G01*
%TO.C,7*%
X55025000Y-97120000D02*
X58115000Y-97120000D01*
X58114830Y-97120001D02*
G75*
G02*
X56569538Y-102669999I-1544830J-2559999D01*
G01*
X56570462Y-102670000D02*
G75*
G02*
X55025170Y-97120000I-462J2990000D01*
G01*
X59070000Y-99680000D02*
G75*
G02*
X54070000Y-99680000I-2500000J0D01*
G01*
X54070000Y-99680000D02*
G75*
G02*
X59070000Y-99680000I2500000J0D01*
G01*
%TO.C,8*%
X43520000Y-84635000D02*
X43520000Y-81545000D01*
X43520001Y-81545170D02*
G75*
G02*
X49069999Y-83090462I2559999J-1544830D01*
G01*
X49070000Y-83089538D02*
G75*
G02*
X43520000Y-84634830I-2990000J-462D01*
G01*
X48580000Y-83090000D02*
G75*
G02*
X43580000Y-83090000I-2500000J0D01*
G01*
X43580000Y-83090000D02*
G75*
G02*
X48580000Y-83090000I2500000J0D01*
G01*
%TO.C,9*%
X43520000Y-67345000D02*
X43520000Y-64255000D01*
X43520001Y-64255170D02*
G75*
G02*
X49069999Y-65800462I2559999J-1544830D01*
G01*
X49070000Y-65799538D02*
G75*
G02*
X43520000Y-67344830I-2990000J-462D01*
G01*
X48580000Y-65800000D02*
G75*
G02*
X43580000Y-65800000I-2500000J0D01*
G01*
X43580000Y-65800000D02*
G75*
G02*
X48580000Y-65800000I2500000J0D01*
G01*
%TO.C,10*%
X53470000Y-53535000D02*
X53470000Y-50445000D01*
X53470001Y-50445170D02*
G75*
G02*
X59019999Y-51990462I2559999J-1544830D01*
G01*
X59020000Y-51989538D02*
G75*
G02*
X53470000Y-53534830I-2990000J-462D01*
G01*
X58530000Y-51990000D02*
G75*
G02*
X53530000Y-51990000I-2500000J0D01*
G01*
X53530000Y-51990000D02*
G75*
G02*
X58530000Y-51990000I2500000J0D01*
G01*
%TD*%
M02*
