%TF.GenerationSoftware,KiCad,Pcbnew,8.0.1*%
%TF.CreationDate,2024-04-02T10:16:43+02:00*%
%TF.ProjectId,GluecksraD,476c7565-636b-4737-9261-442e6b696361,rev?*%
%TF.SameCoordinates,Original*%
%TF.FileFunction,Legend,Top*%
%TF.FilePolarity,Positive*%
%FSLAX46Y46*%
G04 Gerber Fmt 4.6, Leading zero omitted, Abs format (unit mm)*
G04 Created by KiCad (PCBNEW 8.0.1) date 2024-04-02 10:16:43*
%MOMM*%
%LPD*%
G01*
G04 APERTURE LIST*
%ADD10C,0.150000*%
%ADD11C,0.300000*%
%ADD12C,0.120000*%
G04 APERTURE END LIST*
D10*
X67122493Y-62869819D02*
X67122493Y-63584104D01*
X67122493Y-63584104D02*
X67074874Y-63726961D01*
X67074874Y-63726961D02*
X66979636Y-63822200D01*
X66979636Y-63822200D02*
X66836779Y-63869819D01*
X66836779Y-63869819D02*
X66741541Y-63869819D01*
X68074874Y-63869819D02*
X67598684Y-63869819D01*
X67598684Y-63869819D02*
X67598684Y-62869819D01*
X68979636Y-63774580D02*
X68932017Y-63822200D01*
X68932017Y-63822200D02*
X68789160Y-63869819D01*
X68789160Y-63869819D02*
X68693922Y-63869819D01*
X68693922Y-63869819D02*
X68551065Y-63822200D01*
X68551065Y-63822200D02*
X68455827Y-63726961D01*
X68455827Y-63726961D02*
X68408208Y-63631723D01*
X68408208Y-63631723D02*
X68360589Y-63441247D01*
X68360589Y-63441247D02*
X68360589Y-63298390D01*
X68360589Y-63298390D02*
X68408208Y-63107914D01*
X68408208Y-63107914D02*
X68455827Y-63012676D01*
X68455827Y-63012676D02*
X68551065Y-62917438D01*
X68551065Y-62917438D02*
X68693922Y-62869819D01*
X68693922Y-62869819D02*
X68789160Y-62869819D01*
X68789160Y-62869819D02*
X68932017Y-62917438D01*
X68932017Y-62917438D02*
X68979636Y-62965057D01*
X69693922Y-62869819D02*
X69693922Y-63584104D01*
X69693922Y-63584104D02*
X69646303Y-63726961D01*
X69646303Y-63726961D02*
X69551065Y-63822200D01*
X69551065Y-63822200D02*
X69408208Y-63869819D01*
X69408208Y-63869819D02*
X69312970Y-63869819D01*
X70646303Y-63869819D02*
X70170113Y-63869819D01*
X70170113Y-63869819D02*
X70170113Y-62869819D01*
X71551065Y-63774580D02*
X71503446Y-63822200D01*
X71503446Y-63822200D02*
X71360589Y-63869819D01*
X71360589Y-63869819D02*
X71265351Y-63869819D01*
X71265351Y-63869819D02*
X71122494Y-63822200D01*
X71122494Y-63822200D02*
X71027256Y-63726961D01*
X71027256Y-63726961D02*
X70979637Y-63631723D01*
X70979637Y-63631723D02*
X70932018Y-63441247D01*
X70932018Y-63441247D02*
X70932018Y-63298390D01*
X70932018Y-63298390D02*
X70979637Y-63107914D01*
X70979637Y-63107914D02*
X71027256Y-63012676D01*
X71027256Y-63012676D02*
X71122494Y-62917438D01*
X71122494Y-62917438D02*
X71265351Y-62869819D01*
X71265351Y-62869819D02*
X71360589Y-62869819D01*
X71360589Y-62869819D02*
X71503446Y-62917438D01*
X71503446Y-62917438D02*
X71551065Y-62965057D01*
X72265351Y-62869819D02*
X72265351Y-63584104D01*
X72265351Y-63584104D02*
X72217732Y-63726961D01*
X72217732Y-63726961D02*
X72122494Y-63822200D01*
X72122494Y-63822200D02*
X71979637Y-63869819D01*
X71979637Y-63869819D02*
X71884399Y-63869819D01*
X73217732Y-63869819D02*
X72741542Y-63869819D01*
X72741542Y-63869819D02*
X72741542Y-62869819D01*
X74122494Y-63774580D02*
X74074875Y-63822200D01*
X74074875Y-63822200D02*
X73932018Y-63869819D01*
X73932018Y-63869819D02*
X73836780Y-63869819D01*
X73836780Y-63869819D02*
X73693923Y-63822200D01*
X73693923Y-63822200D02*
X73598685Y-63726961D01*
X73598685Y-63726961D02*
X73551066Y-63631723D01*
X73551066Y-63631723D02*
X73503447Y-63441247D01*
X73503447Y-63441247D02*
X73503447Y-63298390D01*
X73503447Y-63298390D02*
X73551066Y-63107914D01*
X73551066Y-63107914D02*
X73598685Y-63012676D01*
X73598685Y-63012676D02*
X73693923Y-62917438D01*
X73693923Y-62917438D02*
X73836780Y-62869819D01*
X73836780Y-62869819D02*
X73932018Y-62869819D01*
X73932018Y-62869819D02*
X74074875Y-62917438D01*
X74074875Y-62917438D02*
X74122494Y-62965057D01*
X74836780Y-62869819D02*
X74836780Y-63584104D01*
X74836780Y-63584104D02*
X74789161Y-63726961D01*
X74789161Y-63726961D02*
X74693923Y-63822200D01*
X74693923Y-63822200D02*
X74551066Y-63869819D01*
X74551066Y-63869819D02*
X74455828Y-63869819D01*
X75789161Y-63869819D02*
X75312971Y-63869819D01*
X75312971Y-63869819D02*
X75312971Y-62869819D01*
X76693923Y-63774580D02*
X76646304Y-63822200D01*
X76646304Y-63822200D02*
X76503447Y-63869819D01*
X76503447Y-63869819D02*
X76408209Y-63869819D01*
X76408209Y-63869819D02*
X76265352Y-63822200D01*
X76265352Y-63822200D02*
X76170114Y-63726961D01*
X76170114Y-63726961D02*
X76122495Y-63631723D01*
X76122495Y-63631723D02*
X76074876Y-63441247D01*
X76074876Y-63441247D02*
X76074876Y-63298390D01*
X76074876Y-63298390D02*
X76122495Y-63107914D01*
X76122495Y-63107914D02*
X76170114Y-63012676D01*
X76170114Y-63012676D02*
X76265352Y-62917438D01*
X76265352Y-62917438D02*
X76408209Y-62869819D01*
X76408209Y-62869819D02*
X76503447Y-62869819D01*
X76503447Y-62869819D02*
X76646304Y-62917438D01*
X76646304Y-62917438D02*
X76693923Y-62965057D01*
X51658095Y-52494819D02*
X51658095Y-51494819D01*
X52229523Y-52494819D02*
X51800952Y-51923390D01*
X52229523Y-51494819D02*
X51658095Y-52066247D01*
X72333095Y-101594819D02*
X72333095Y-100594819D01*
X72904523Y-101594819D02*
X72475952Y-101023390D01*
X72904523Y-100594819D02*
X72333095Y-101166247D01*
X92658095Y-52544819D02*
X92658095Y-51544819D01*
X93229523Y-52544819D02*
X92800952Y-51973390D01*
X93229523Y-51544819D02*
X92658095Y-52116247D01*
X75954285Y-97181200D02*
X76049523Y-97228819D01*
X76049523Y-97228819D02*
X76239999Y-97228819D01*
X76239999Y-97228819D02*
X76335237Y-97181200D01*
X76335237Y-97181200D02*
X76382856Y-97085961D01*
X76382856Y-97085961D02*
X76382856Y-97038342D01*
X76382856Y-97038342D02*
X76335237Y-96943104D01*
X76335237Y-96943104D02*
X76239999Y-96895485D01*
X76239999Y-96895485D02*
X76097142Y-96895485D01*
X76097142Y-96895485D02*
X76001904Y-96847866D01*
X76001904Y-96847866D02*
X75954285Y-96752628D01*
X75954285Y-96752628D02*
X75954285Y-96705009D01*
X75954285Y-96705009D02*
X76001904Y-96609771D01*
X76001904Y-96609771D02*
X76097142Y-96562152D01*
X76097142Y-96562152D02*
X76239999Y-96562152D01*
X76239999Y-96562152D02*
X76335237Y-96609771D01*
X77239999Y-97181200D02*
X77144761Y-97228819D01*
X77144761Y-97228819D02*
X76954285Y-97228819D01*
X76954285Y-97228819D02*
X76859047Y-97181200D01*
X76859047Y-97181200D02*
X76811428Y-97133580D01*
X76811428Y-97133580D02*
X76763809Y-97038342D01*
X76763809Y-97038342D02*
X76763809Y-96752628D01*
X76763809Y-96752628D02*
X76811428Y-96657390D01*
X76811428Y-96657390D02*
X76859047Y-96609771D01*
X76859047Y-96609771D02*
X76954285Y-96562152D01*
X76954285Y-96562152D02*
X77144761Y-96562152D01*
X77144761Y-96562152D02*
X77239999Y-96609771D01*
X77668571Y-97228819D02*
X77668571Y-96228819D01*
X78097142Y-97228819D02*
X78097142Y-96705009D01*
X78097142Y-96705009D02*
X78049523Y-96609771D01*
X78049523Y-96609771D02*
X77954285Y-96562152D01*
X77954285Y-96562152D02*
X77811428Y-96562152D01*
X77811428Y-96562152D02*
X77716190Y-96609771D01*
X77716190Y-96609771D02*
X77668571Y-96657390D01*
X78478095Y-96562152D02*
X78668571Y-97228819D01*
X78668571Y-97228819D02*
X78859047Y-96752628D01*
X78859047Y-96752628D02*
X79049523Y-97228819D01*
X79049523Y-97228819D02*
X79239999Y-96562152D01*
X80049523Y-97228819D02*
X80049523Y-96705009D01*
X80049523Y-96705009D02*
X80001904Y-96609771D01*
X80001904Y-96609771D02*
X79906666Y-96562152D01*
X79906666Y-96562152D02*
X79716190Y-96562152D01*
X79716190Y-96562152D02*
X79620952Y-96609771D01*
X80049523Y-97181200D02*
X79954285Y-97228819D01*
X79954285Y-97228819D02*
X79716190Y-97228819D01*
X79716190Y-97228819D02*
X79620952Y-97181200D01*
X79620952Y-97181200D02*
X79573333Y-97085961D01*
X79573333Y-97085961D02*
X79573333Y-96990723D01*
X79573333Y-96990723D02*
X79620952Y-96895485D01*
X79620952Y-96895485D02*
X79716190Y-96847866D01*
X79716190Y-96847866D02*
X79954285Y-96847866D01*
X79954285Y-96847866D02*
X80049523Y-96800247D01*
X80525714Y-97228819D02*
X80525714Y-96562152D01*
X80525714Y-96752628D02*
X80573333Y-96657390D01*
X80573333Y-96657390D02*
X80620952Y-96609771D01*
X80620952Y-96609771D02*
X80716190Y-96562152D01*
X80716190Y-96562152D02*
X80811428Y-96562152D01*
X81049524Y-96562152D02*
X81573333Y-96562152D01*
X81573333Y-96562152D02*
X81049524Y-97228819D01*
X81049524Y-97228819D02*
X81573333Y-97228819D01*
X41833095Y-83519819D02*
X41833095Y-82519819D01*
X42404523Y-83519819D02*
X41975952Y-82948390D01*
X42404523Y-82519819D02*
X41833095Y-83091247D01*
X72342476Y-97228819D02*
X72342476Y-96562152D01*
X72342476Y-96752628D02*
X72390095Y-96657390D01*
X72390095Y-96657390D02*
X72437714Y-96609771D01*
X72437714Y-96609771D02*
X72532952Y-96562152D01*
X72532952Y-96562152D02*
X72628190Y-96562152D01*
X73104381Y-97228819D02*
X73009143Y-97181200D01*
X73009143Y-97181200D02*
X72961524Y-97133580D01*
X72961524Y-97133580D02*
X72913905Y-97038342D01*
X72913905Y-97038342D02*
X72913905Y-96752628D01*
X72913905Y-96752628D02*
X72961524Y-96657390D01*
X72961524Y-96657390D02*
X73009143Y-96609771D01*
X73009143Y-96609771D02*
X73104381Y-96562152D01*
X73104381Y-96562152D02*
X73247238Y-96562152D01*
X73247238Y-96562152D02*
X73342476Y-96609771D01*
X73342476Y-96609771D02*
X73390095Y-96657390D01*
X73390095Y-96657390D02*
X73437714Y-96752628D01*
X73437714Y-96752628D02*
X73437714Y-97038342D01*
X73437714Y-97038342D02*
X73390095Y-97133580D01*
X73390095Y-97133580D02*
X73342476Y-97181200D01*
X73342476Y-97181200D02*
X73247238Y-97228819D01*
X73247238Y-97228819D02*
X73104381Y-97228819D01*
X73723429Y-96562152D02*
X74104381Y-96562152D01*
X73866286Y-96228819D02*
X73866286Y-97085961D01*
X73866286Y-97085961D02*
X73913905Y-97181200D01*
X73913905Y-97181200D02*
X74009143Y-97228819D01*
X74009143Y-97228819D02*
X74104381Y-97228819D01*
X92708095Y-97519819D02*
X92708095Y-96519819D01*
X93279523Y-97519819D02*
X92850952Y-96948390D01*
X93279523Y-96519819D02*
X92708095Y-97091247D01*
X102683095Y-83644819D02*
X102683095Y-82644819D01*
X103254523Y-83644819D02*
X102825952Y-83073390D01*
X103254523Y-82644819D02*
X102683095Y-83216247D01*
X76113095Y-47479819D02*
X76113095Y-46479819D01*
X76684523Y-47479819D02*
X76255952Y-46908390D01*
X76684523Y-46479819D02*
X76113095Y-47051247D01*
X42283095Y-66444819D02*
X42283095Y-65444819D01*
X42854523Y-66444819D02*
X42425952Y-65873390D01*
X42854523Y-65444819D02*
X42283095Y-66016247D01*
X49380112Y-59036009D02*
X49522969Y-59083628D01*
X49522969Y-59083628D02*
X49570588Y-59131247D01*
X49570588Y-59131247D02*
X49618207Y-59226485D01*
X49618207Y-59226485D02*
X49618207Y-59369342D01*
X49618207Y-59369342D02*
X49570588Y-59464580D01*
X49570588Y-59464580D02*
X49522969Y-59512200D01*
X49522969Y-59512200D02*
X49427731Y-59559819D01*
X49427731Y-59559819D02*
X49046779Y-59559819D01*
X49046779Y-59559819D02*
X49046779Y-58559819D01*
X49046779Y-58559819D02*
X49380112Y-58559819D01*
X49380112Y-58559819D02*
X49475350Y-58607438D01*
X49475350Y-58607438D02*
X49522969Y-58655057D01*
X49522969Y-58655057D02*
X49570588Y-58750295D01*
X49570588Y-58750295D02*
X49570588Y-58845533D01*
X49570588Y-58845533D02*
X49522969Y-58940771D01*
X49522969Y-58940771D02*
X49475350Y-58988390D01*
X49475350Y-58988390D02*
X49380112Y-59036009D01*
X49380112Y-59036009D02*
X49046779Y-59036009D01*
X50618207Y-59464580D02*
X50570588Y-59512200D01*
X50570588Y-59512200D02*
X50427731Y-59559819D01*
X50427731Y-59559819D02*
X50332493Y-59559819D01*
X50332493Y-59559819D02*
X50189636Y-59512200D01*
X50189636Y-59512200D02*
X50094398Y-59416961D01*
X50094398Y-59416961D02*
X50046779Y-59321723D01*
X50046779Y-59321723D02*
X49999160Y-59131247D01*
X49999160Y-59131247D02*
X49999160Y-58988390D01*
X49999160Y-58988390D02*
X50046779Y-58797914D01*
X50046779Y-58797914D02*
X50094398Y-58702676D01*
X50094398Y-58702676D02*
X50189636Y-58607438D01*
X50189636Y-58607438D02*
X50332493Y-58559819D01*
X50332493Y-58559819D02*
X50427731Y-58559819D01*
X50427731Y-58559819D02*
X50570588Y-58607438D01*
X50570588Y-58607438D02*
X50618207Y-58655057D01*
X51522969Y-58559819D02*
X51046779Y-58559819D01*
X51046779Y-58559819D02*
X50999160Y-59036009D01*
X50999160Y-59036009D02*
X51046779Y-58988390D01*
X51046779Y-58988390D02*
X51142017Y-58940771D01*
X51142017Y-58940771D02*
X51380112Y-58940771D01*
X51380112Y-58940771D02*
X51475350Y-58988390D01*
X51475350Y-58988390D02*
X51522969Y-59036009D01*
X51522969Y-59036009D02*
X51570588Y-59131247D01*
X51570588Y-59131247D02*
X51570588Y-59369342D01*
X51570588Y-59369342D02*
X51522969Y-59464580D01*
X51522969Y-59464580D02*
X51475350Y-59512200D01*
X51475350Y-59512200D02*
X51380112Y-59559819D01*
X51380112Y-59559819D02*
X51142017Y-59559819D01*
X51142017Y-59559819D02*
X51046779Y-59512200D01*
X51046779Y-59512200D02*
X50999160Y-59464580D01*
X52427731Y-58893152D02*
X52427731Y-59559819D01*
X52189636Y-58512200D02*
X51951541Y-59226485D01*
X51951541Y-59226485D02*
X52570588Y-59226485D01*
X53094398Y-58988390D02*
X52999160Y-58940771D01*
X52999160Y-58940771D02*
X52951541Y-58893152D01*
X52951541Y-58893152D02*
X52903922Y-58797914D01*
X52903922Y-58797914D02*
X52903922Y-58750295D01*
X52903922Y-58750295D02*
X52951541Y-58655057D01*
X52951541Y-58655057D02*
X52999160Y-58607438D01*
X52999160Y-58607438D02*
X53094398Y-58559819D01*
X53094398Y-58559819D02*
X53284874Y-58559819D01*
X53284874Y-58559819D02*
X53380112Y-58607438D01*
X53380112Y-58607438D02*
X53427731Y-58655057D01*
X53427731Y-58655057D02*
X53475350Y-58750295D01*
X53475350Y-58750295D02*
X53475350Y-58797914D01*
X53475350Y-58797914D02*
X53427731Y-58893152D01*
X53427731Y-58893152D02*
X53380112Y-58940771D01*
X53380112Y-58940771D02*
X53284874Y-58988390D01*
X53284874Y-58988390D02*
X53094398Y-58988390D01*
X53094398Y-58988390D02*
X52999160Y-59036009D01*
X52999160Y-59036009D02*
X52951541Y-59083628D01*
X52951541Y-59083628D02*
X52903922Y-59178866D01*
X52903922Y-59178866D02*
X52903922Y-59369342D01*
X52903922Y-59369342D02*
X52951541Y-59464580D01*
X52951541Y-59464580D02*
X52999160Y-59512200D01*
X52999160Y-59512200D02*
X53094398Y-59559819D01*
X53094398Y-59559819D02*
X53284874Y-59559819D01*
X53284874Y-59559819D02*
X53380112Y-59512200D01*
X53380112Y-59512200D02*
X53427731Y-59464580D01*
X53427731Y-59464580D02*
X53475350Y-59369342D01*
X53475350Y-59369342D02*
X53475350Y-59178866D01*
X53475350Y-59178866D02*
X53427731Y-59083628D01*
X53427731Y-59083628D02*
X53380112Y-59036009D01*
X53380112Y-59036009D02*
X53284874Y-58988390D01*
X102358095Y-66794819D02*
X102358095Y-65794819D01*
X102929523Y-66794819D02*
X102500952Y-66223390D01*
X102929523Y-65794819D02*
X102358095Y-66366247D01*
X56408095Y-96169819D02*
X56408095Y-95169819D01*
X56979523Y-96169819D02*
X56550952Y-95598390D01*
X56979523Y-95169819D02*
X56408095Y-95741247D01*
X68183333Y-81469580D02*
X68135714Y-81517200D01*
X68135714Y-81517200D02*
X67992857Y-81564819D01*
X67992857Y-81564819D02*
X67897619Y-81564819D01*
X67897619Y-81564819D02*
X67754762Y-81517200D01*
X67754762Y-81517200D02*
X67659524Y-81421961D01*
X67659524Y-81421961D02*
X67611905Y-81326723D01*
X67611905Y-81326723D02*
X67564286Y-81136247D01*
X67564286Y-81136247D02*
X67564286Y-80993390D01*
X67564286Y-80993390D02*
X67611905Y-80802914D01*
X67611905Y-80802914D02*
X67659524Y-80707676D01*
X67659524Y-80707676D02*
X67754762Y-80612438D01*
X67754762Y-80612438D02*
X67897619Y-80564819D01*
X67897619Y-80564819D02*
X67992857Y-80564819D01*
X67992857Y-80564819D02*
X68135714Y-80612438D01*
X68135714Y-80612438D02*
X68183333Y-80660057D01*
X69135714Y-81564819D02*
X68564286Y-81564819D01*
X68850000Y-81564819D02*
X68850000Y-80564819D01*
X68850000Y-80564819D02*
X68754762Y-80707676D01*
X68754762Y-80707676D02*
X68659524Y-80802914D01*
X68659524Y-80802914D02*
X68564286Y-80850533D01*
X73318761Y-83004819D02*
X72747333Y-83004819D01*
X73033047Y-83004819D02*
X73033047Y-82004819D01*
X73033047Y-82004819D02*
X72937809Y-82147676D01*
X72937809Y-82147676D02*
X72842571Y-82242914D01*
X72842571Y-82242914D02*
X72747333Y-82290533D01*
X74175904Y-82338152D02*
X74175904Y-83004819D01*
X73747333Y-82338152D02*
X73747333Y-82861961D01*
X73747333Y-82861961D02*
X73794952Y-82957200D01*
X73794952Y-82957200D02*
X73890190Y-83004819D01*
X73890190Y-83004819D02*
X74033047Y-83004819D01*
X74033047Y-83004819D02*
X74128285Y-82957200D01*
X74128285Y-82957200D02*
X74175904Y-82909580D01*
X74985428Y-82481009D02*
X74652095Y-82481009D01*
X74652095Y-83004819D02*
X74652095Y-82004819D01*
X74652095Y-82004819D02*
X75128285Y-82004819D01*
X59923333Y-70054819D02*
X59590000Y-69578628D01*
X59351905Y-70054819D02*
X59351905Y-69054819D01*
X59351905Y-69054819D02*
X59732857Y-69054819D01*
X59732857Y-69054819D02*
X59828095Y-69102438D01*
X59828095Y-69102438D02*
X59875714Y-69150057D01*
X59875714Y-69150057D02*
X59923333Y-69245295D01*
X59923333Y-69245295D02*
X59923333Y-69388152D01*
X59923333Y-69388152D02*
X59875714Y-69483390D01*
X59875714Y-69483390D02*
X59828095Y-69531009D01*
X59828095Y-69531009D02*
X59732857Y-69578628D01*
X59732857Y-69578628D02*
X59351905Y-69578628D01*
X60304286Y-69150057D02*
X60351905Y-69102438D01*
X60351905Y-69102438D02*
X60447143Y-69054819D01*
X60447143Y-69054819D02*
X60685238Y-69054819D01*
X60685238Y-69054819D02*
X60780476Y-69102438D01*
X60780476Y-69102438D02*
X60828095Y-69150057D01*
X60828095Y-69150057D02*
X60875714Y-69245295D01*
X60875714Y-69245295D02*
X60875714Y-69340533D01*
X60875714Y-69340533D02*
X60828095Y-69483390D01*
X60828095Y-69483390D02*
X60256667Y-70054819D01*
X60256667Y-70054819D02*
X60875714Y-70054819D01*
X52464761Y-70084819D02*
X51893333Y-70084819D01*
X52179047Y-70084819D02*
X52179047Y-69084819D01*
X52179047Y-69084819D02*
X52083809Y-69227676D01*
X52083809Y-69227676D02*
X51988571Y-69322914D01*
X51988571Y-69322914D02*
X51893333Y-69370533D01*
X53083809Y-69084819D02*
X53179047Y-69084819D01*
X53179047Y-69084819D02*
X53274285Y-69132438D01*
X53274285Y-69132438D02*
X53321904Y-69180057D01*
X53321904Y-69180057D02*
X53369523Y-69275295D01*
X53369523Y-69275295D02*
X53417142Y-69465771D01*
X53417142Y-69465771D02*
X53417142Y-69703866D01*
X53417142Y-69703866D02*
X53369523Y-69894342D01*
X53369523Y-69894342D02*
X53321904Y-69989580D01*
X53321904Y-69989580D02*
X53274285Y-70037200D01*
X53274285Y-70037200D02*
X53179047Y-70084819D01*
X53179047Y-70084819D02*
X53083809Y-70084819D01*
X53083809Y-70084819D02*
X52988571Y-70037200D01*
X52988571Y-70037200D02*
X52940952Y-69989580D01*
X52940952Y-69989580D02*
X52893333Y-69894342D01*
X52893333Y-69894342D02*
X52845714Y-69703866D01*
X52845714Y-69703866D02*
X52845714Y-69465771D01*
X52845714Y-69465771D02*
X52893333Y-69275295D01*
X52893333Y-69275295D02*
X52940952Y-69180057D01*
X52940952Y-69180057D02*
X52988571Y-69132438D01*
X52988571Y-69132438D02*
X53083809Y-69084819D01*
X53845714Y-70084819D02*
X53845714Y-69084819D01*
X53940952Y-69703866D02*
X54226666Y-70084819D01*
X54226666Y-69418152D02*
X53845714Y-69799104D01*
X60043333Y-74634819D02*
X59710000Y-74158628D01*
X59471905Y-74634819D02*
X59471905Y-73634819D01*
X59471905Y-73634819D02*
X59852857Y-73634819D01*
X59852857Y-73634819D02*
X59948095Y-73682438D01*
X59948095Y-73682438D02*
X59995714Y-73730057D01*
X59995714Y-73730057D02*
X60043333Y-73825295D01*
X60043333Y-73825295D02*
X60043333Y-73968152D01*
X60043333Y-73968152D02*
X59995714Y-74063390D01*
X59995714Y-74063390D02*
X59948095Y-74111009D01*
X59948095Y-74111009D02*
X59852857Y-74158628D01*
X59852857Y-74158628D02*
X59471905Y-74158628D01*
X60376667Y-73634819D02*
X60995714Y-73634819D01*
X60995714Y-73634819D02*
X60662381Y-74015771D01*
X60662381Y-74015771D02*
X60805238Y-74015771D01*
X60805238Y-74015771D02*
X60900476Y-74063390D01*
X60900476Y-74063390D02*
X60948095Y-74111009D01*
X60948095Y-74111009D02*
X60995714Y-74206247D01*
X60995714Y-74206247D02*
X60995714Y-74444342D01*
X60995714Y-74444342D02*
X60948095Y-74539580D01*
X60948095Y-74539580D02*
X60900476Y-74587200D01*
X60900476Y-74587200D02*
X60805238Y-74634819D01*
X60805238Y-74634819D02*
X60519524Y-74634819D01*
X60519524Y-74634819D02*
X60424286Y-74587200D01*
X60424286Y-74587200D02*
X60376667Y-74539580D01*
X51493333Y-74088152D02*
X51493333Y-74754819D01*
X51255238Y-73707200D02*
X51017143Y-74421485D01*
X51017143Y-74421485D02*
X51636190Y-74421485D01*
X51921905Y-73754819D02*
X52588571Y-73754819D01*
X52588571Y-73754819D02*
X52160000Y-74754819D01*
X53160000Y-73754819D02*
X53255238Y-73754819D01*
X53255238Y-73754819D02*
X53350476Y-73802438D01*
X53350476Y-73802438D02*
X53398095Y-73850057D01*
X53398095Y-73850057D02*
X53445714Y-73945295D01*
X53445714Y-73945295D02*
X53493333Y-74135771D01*
X53493333Y-74135771D02*
X53493333Y-74373866D01*
X53493333Y-74373866D02*
X53445714Y-74564342D01*
X53445714Y-74564342D02*
X53398095Y-74659580D01*
X53398095Y-74659580D02*
X53350476Y-74707200D01*
X53350476Y-74707200D02*
X53255238Y-74754819D01*
X53255238Y-74754819D02*
X53160000Y-74754819D01*
X53160000Y-74754819D02*
X53064762Y-74707200D01*
X53064762Y-74707200D02*
X53017143Y-74659580D01*
X53017143Y-74659580D02*
X52969524Y-74564342D01*
X52969524Y-74564342D02*
X52921905Y-74373866D01*
X52921905Y-74373866D02*
X52921905Y-74135771D01*
X52921905Y-74135771D02*
X52969524Y-73945295D01*
X52969524Y-73945295D02*
X53017143Y-73850057D01*
X53017143Y-73850057D02*
X53064762Y-73802438D01*
X53064762Y-73802438D02*
X53160000Y-73754819D01*
X53921905Y-74754819D02*
X53921905Y-73754819D01*
X54017143Y-74373866D02*
X54302857Y-74754819D01*
X54302857Y-74088152D02*
X53921905Y-74469104D01*
X62293333Y-90094819D02*
X61960000Y-89618628D01*
X61721905Y-90094819D02*
X61721905Y-89094819D01*
X61721905Y-89094819D02*
X62102857Y-89094819D01*
X62102857Y-89094819D02*
X62198095Y-89142438D01*
X62198095Y-89142438D02*
X62245714Y-89190057D01*
X62245714Y-89190057D02*
X62293333Y-89285295D01*
X62293333Y-89285295D02*
X62293333Y-89428152D01*
X62293333Y-89428152D02*
X62245714Y-89523390D01*
X62245714Y-89523390D02*
X62198095Y-89571009D01*
X62198095Y-89571009D02*
X62102857Y-89618628D01*
X62102857Y-89618628D02*
X61721905Y-89618628D01*
X63150476Y-89428152D02*
X63150476Y-90094819D01*
X62912381Y-89047200D02*
X62674286Y-89761485D01*
X62674286Y-89761485D02*
X63293333Y-89761485D01*
X61786666Y-92804819D02*
X61215238Y-92804819D01*
X61500952Y-92804819D02*
X61500952Y-91804819D01*
X61500952Y-91804819D02*
X61405714Y-91947676D01*
X61405714Y-91947676D02*
X61310476Y-92042914D01*
X61310476Y-92042914D02*
X61215238Y-92090533D01*
X62262857Y-92757200D02*
X62262857Y-92804819D01*
X62262857Y-92804819D02*
X62215238Y-92900057D01*
X62215238Y-92900057D02*
X62167619Y-92947676D01*
X62643809Y-91900057D02*
X62691428Y-91852438D01*
X62691428Y-91852438D02*
X62786666Y-91804819D01*
X62786666Y-91804819D02*
X63024761Y-91804819D01*
X63024761Y-91804819D02*
X63119999Y-91852438D01*
X63119999Y-91852438D02*
X63167618Y-91900057D01*
X63167618Y-91900057D02*
X63215237Y-91995295D01*
X63215237Y-91995295D02*
X63215237Y-92090533D01*
X63215237Y-92090533D02*
X63167618Y-92233390D01*
X63167618Y-92233390D02*
X62596190Y-92804819D01*
X62596190Y-92804819D02*
X63215237Y-92804819D01*
X63643809Y-92804819D02*
X63643809Y-91804819D01*
X63739047Y-92423866D02*
X64024761Y-92804819D01*
X64024761Y-92138152D02*
X63643809Y-92519104D01*
X72120286Y-87195866D02*
X72882191Y-87195866D01*
X72501238Y-87576819D02*
X72501238Y-86814914D01*
X73406000Y-87576819D02*
X73596476Y-87576819D01*
X73596476Y-87576819D02*
X73691714Y-87529200D01*
X73691714Y-87529200D02*
X73739333Y-87481580D01*
X73739333Y-87481580D02*
X73834571Y-87338723D01*
X73834571Y-87338723D02*
X73882190Y-87148247D01*
X73882190Y-87148247D02*
X73882190Y-86767295D01*
X73882190Y-86767295D02*
X73834571Y-86672057D01*
X73834571Y-86672057D02*
X73786952Y-86624438D01*
X73786952Y-86624438D02*
X73691714Y-86576819D01*
X73691714Y-86576819D02*
X73501238Y-86576819D01*
X73501238Y-86576819D02*
X73406000Y-86624438D01*
X73406000Y-86624438D02*
X73358381Y-86672057D01*
X73358381Y-86672057D02*
X73310762Y-86767295D01*
X73310762Y-86767295D02*
X73310762Y-87005390D01*
X73310762Y-87005390D02*
X73358381Y-87100628D01*
X73358381Y-87100628D02*
X73406000Y-87148247D01*
X73406000Y-87148247D02*
X73501238Y-87195866D01*
X73501238Y-87195866D02*
X73691714Y-87195866D01*
X73691714Y-87195866D02*
X73786952Y-87148247D01*
X73786952Y-87148247D02*
X73834571Y-87100628D01*
X73834571Y-87100628D02*
X73882190Y-87005390D01*
X74167905Y-86576819D02*
X74501238Y-87576819D01*
X74501238Y-87576819D02*
X74834571Y-86576819D01*
X73403333Y-77494819D02*
X73403333Y-76494819D01*
X73403333Y-76494819D02*
X73974761Y-77494819D01*
X73974761Y-77494819D02*
X73974761Y-76494819D01*
X74450952Y-76971009D02*
X74784285Y-76971009D01*
X74927142Y-77494819D02*
X74450952Y-77494819D01*
X74450952Y-77494819D02*
X74450952Y-76494819D01*
X74450952Y-76494819D02*
X74927142Y-76494819D01*
X75831904Y-76494819D02*
X75355714Y-76494819D01*
X75355714Y-76494819D02*
X75308095Y-76971009D01*
X75308095Y-76971009D02*
X75355714Y-76923390D01*
X75355714Y-76923390D02*
X75450952Y-76875771D01*
X75450952Y-76875771D02*
X75689047Y-76875771D01*
X75689047Y-76875771D02*
X75784285Y-76923390D01*
X75784285Y-76923390D02*
X75831904Y-76971009D01*
X75831904Y-76971009D02*
X75879523Y-77066247D01*
X75879523Y-77066247D02*
X75879523Y-77304342D01*
X75879523Y-77304342D02*
X75831904Y-77399580D01*
X75831904Y-77399580D02*
X75784285Y-77447200D01*
X75784285Y-77447200D02*
X75689047Y-77494819D01*
X75689047Y-77494819D02*
X75450952Y-77494819D01*
X75450952Y-77494819D02*
X75355714Y-77447200D01*
X75355714Y-77447200D02*
X75308095Y-77399580D01*
X76784285Y-76494819D02*
X76308095Y-76494819D01*
X76308095Y-76494819D02*
X76260476Y-76971009D01*
X76260476Y-76971009D02*
X76308095Y-76923390D01*
X76308095Y-76923390D02*
X76403333Y-76875771D01*
X76403333Y-76875771D02*
X76641428Y-76875771D01*
X76641428Y-76875771D02*
X76736666Y-76923390D01*
X76736666Y-76923390D02*
X76784285Y-76971009D01*
X76784285Y-76971009D02*
X76831904Y-77066247D01*
X76831904Y-77066247D02*
X76831904Y-77304342D01*
X76831904Y-77304342D02*
X76784285Y-77399580D01*
X76784285Y-77399580D02*
X76736666Y-77447200D01*
X76736666Y-77447200D02*
X76641428Y-77494819D01*
X76641428Y-77494819D02*
X76403333Y-77494819D01*
X76403333Y-77494819D02*
X76308095Y-77447200D01*
X76308095Y-77447200D02*
X76260476Y-77399580D01*
X77736666Y-76494819D02*
X77260476Y-76494819D01*
X77260476Y-76494819D02*
X77212857Y-76971009D01*
X77212857Y-76971009D02*
X77260476Y-76923390D01*
X77260476Y-76923390D02*
X77355714Y-76875771D01*
X77355714Y-76875771D02*
X77593809Y-76875771D01*
X77593809Y-76875771D02*
X77689047Y-76923390D01*
X77689047Y-76923390D02*
X77736666Y-76971009D01*
X77736666Y-76971009D02*
X77784285Y-77066247D01*
X77784285Y-77066247D02*
X77784285Y-77304342D01*
X77784285Y-77304342D02*
X77736666Y-77399580D01*
X77736666Y-77399580D02*
X77689047Y-77447200D01*
X77689047Y-77447200D02*
X77593809Y-77494819D01*
X77593809Y-77494819D02*
X77355714Y-77494819D01*
X77355714Y-77494819D02*
X77260476Y-77447200D01*
X77260476Y-77447200D02*
X77212857Y-77399580D01*
X85534761Y-89019580D02*
X85487142Y-89067200D01*
X85487142Y-89067200D02*
X85344285Y-89114819D01*
X85344285Y-89114819D02*
X85249047Y-89114819D01*
X85249047Y-89114819D02*
X85106190Y-89067200D01*
X85106190Y-89067200D02*
X85010952Y-88971961D01*
X85010952Y-88971961D02*
X84963333Y-88876723D01*
X84963333Y-88876723D02*
X84915714Y-88686247D01*
X84915714Y-88686247D02*
X84915714Y-88543390D01*
X84915714Y-88543390D02*
X84963333Y-88352914D01*
X84963333Y-88352914D02*
X85010952Y-88257676D01*
X85010952Y-88257676D02*
X85106190Y-88162438D01*
X85106190Y-88162438D02*
X85249047Y-88114819D01*
X85249047Y-88114819D02*
X85344285Y-88114819D01*
X85344285Y-88114819D02*
X85487142Y-88162438D01*
X85487142Y-88162438D02*
X85534761Y-88210057D01*
X85963333Y-89114819D02*
X85963333Y-88114819D01*
X85963333Y-88114819D02*
X86201428Y-88114819D01*
X86201428Y-88114819D02*
X86344285Y-88162438D01*
X86344285Y-88162438D02*
X86439523Y-88257676D01*
X86439523Y-88257676D02*
X86487142Y-88352914D01*
X86487142Y-88352914D02*
X86534761Y-88543390D01*
X86534761Y-88543390D02*
X86534761Y-88686247D01*
X86534761Y-88686247D02*
X86487142Y-88876723D01*
X86487142Y-88876723D02*
X86439523Y-88971961D01*
X86439523Y-88971961D02*
X86344285Y-89067200D01*
X86344285Y-89067200D02*
X86201428Y-89114819D01*
X86201428Y-89114819D02*
X85963333Y-89114819D01*
X87391904Y-88448152D02*
X87391904Y-89114819D01*
X87153809Y-88067200D02*
X86915714Y-88781485D01*
X86915714Y-88781485D02*
X87534761Y-88781485D01*
X88106190Y-88114819D02*
X88201428Y-88114819D01*
X88201428Y-88114819D02*
X88296666Y-88162438D01*
X88296666Y-88162438D02*
X88344285Y-88210057D01*
X88344285Y-88210057D02*
X88391904Y-88305295D01*
X88391904Y-88305295D02*
X88439523Y-88495771D01*
X88439523Y-88495771D02*
X88439523Y-88733866D01*
X88439523Y-88733866D02*
X88391904Y-88924342D01*
X88391904Y-88924342D02*
X88344285Y-89019580D01*
X88344285Y-89019580D02*
X88296666Y-89067200D01*
X88296666Y-89067200D02*
X88201428Y-89114819D01*
X88201428Y-89114819D02*
X88106190Y-89114819D01*
X88106190Y-89114819D02*
X88010952Y-89067200D01*
X88010952Y-89067200D02*
X87963333Y-89019580D01*
X87963333Y-89019580D02*
X87915714Y-88924342D01*
X87915714Y-88924342D02*
X87868095Y-88733866D01*
X87868095Y-88733866D02*
X87868095Y-88495771D01*
X87868095Y-88495771D02*
X87915714Y-88305295D01*
X87915714Y-88305295D02*
X87963333Y-88210057D01*
X87963333Y-88210057D02*
X88010952Y-88162438D01*
X88010952Y-88162438D02*
X88106190Y-88114819D01*
X89391904Y-89114819D02*
X88820476Y-89114819D01*
X89106190Y-89114819D02*
X89106190Y-88114819D01*
X89106190Y-88114819D02*
X89010952Y-88257676D01*
X89010952Y-88257676D02*
X88915714Y-88352914D01*
X88915714Y-88352914D02*
X88820476Y-88400533D01*
X89725238Y-88114819D02*
X90391904Y-88114819D01*
X90391904Y-88114819D02*
X89963333Y-89114819D01*
X78523809Y-86576819D02*
X78619047Y-86576819D01*
X78619047Y-86576819D02*
X78714285Y-86624438D01*
X78714285Y-86624438D02*
X78761904Y-86672057D01*
X78761904Y-86672057D02*
X78809523Y-86767295D01*
X78809523Y-86767295D02*
X78857142Y-86957771D01*
X78857142Y-86957771D02*
X78857142Y-87195866D01*
X78857142Y-87195866D02*
X78809523Y-87386342D01*
X78809523Y-87386342D02*
X78761904Y-87481580D01*
X78761904Y-87481580D02*
X78714285Y-87529200D01*
X78714285Y-87529200D02*
X78619047Y-87576819D01*
X78619047Y-87576819D02*
X78523809Y-87576819D01*
X78523809Y-87576819D02*
X78428571Y-87529200D01*
X78428571Y-87529200D02*
X78380952Y-87481580D01*
X78380952Y-87481580D02*
X78333333Y-87386342D01*
X78333333Y-87386342D02*
X78285714Y-87195866D01*
X78285714Y-87195866D02*
X78285714Y-86957771D01*
X78285714Y-86957771D02*
X78333333Y-86767295D01*
X78333333Y-86767295D02*
X78380952Y-86672057D01*
X78380952Y-86672057D02*
X78428571Y-86624438D01*
X78428571Y-86624438D02*
X78523809Y-86576819D01*
X79142857Y-86576819D02*
X79476190Y-87576819D01*
X79476190Y-87576819D02*
X79809523Y-86576819D01*
D11*
X86106190Y-59996400D02*
X86391904Y-60091638D01*
X86391904Y-60091638D02*
X86868095Y-60091638D01*
X86868095Y-60091638D02*
X87058571Y-59996400D01*
X87058571Y-59996400D02*
X87153809Y-59901161D01*
X87153809Y-59901161D02*
X87249047Y-59710685D01*
X87249047Y-59710685D02*
X87249047Y-59520209D01*
X87249047Y-59520209D02*
X87153809Y-59329733D01*
X87153809Y-59329733D02*
X87058571Y-59234495D01*
X87058571Y-59234495D02*
X86868095Y-59139257D01*
X86868095Y-59139257D02*
X86487142Y-59044019D01*
X86487142Y-59044019D02*
X86296666Y-58948780D01*
X86296666Y-58948780D02*
X86201428Y-58853542D01*
X86201428Y-58853542D02*
X86106190Y-58663066D01*
X86106190Y-58663066D02*
X86106190Y-58472590D01*
X86106190Y-58472590D02*
X86201428Y-58282114D01*
X86201428Y-58282114D02*
X86296666Y-58186876D01*
X86296666Y-58186876D02*
X86487142Y-58091638D01*
X86487142Y-58091638D02*
X86963333Y-58091638D01*
X86963333Y-58091638D02*
X87249047Y-58186876D01*
X89153809Y-60091638D02*
X88010952Y-60091638D01*
X88582380Y-60091638D02*
X88582380Y-58091638D01*
X88582380Y-58091638D02*
X88391904Y-58377352D01*
X88391904Y-58377352D02*
X88201428Y-58567828D01*
X88201428Y-58567828D02*
X88010952Y-58663066D01*
D10*
X57387333Y-81919580D02*
X57339714Y-81967200D01*
X57339714Y-81967200D02*
X57196857Y-82014819D01*
X57196857Y-82014819D02*
X57101619Y-82014819D01*
X57101619Y-82014819D02*
X56958762Y-81967200D01*
X56958762Y-81967200D02*
X56863524Y-81871961D01*
X56863524Y-81871961D02*
X56815905Y-81776723D01*
X56815905Y-81776723D02*
X56768286Y-81586247D01*
X56768286Y-81586247D02*
X56768286Y-81443390D01*
X56768286Y-81443390D02*
X56815905Y-81252914D01*
X56815905Y-81252914D02*
X56863524Y-81157676D01*
X56863524Y-81157676D02*
X56958762Y-81062438D01*
X56958762Y-81062438D02*
X57101619Y-81014819D01*
X57101619Y-81014819D02*
X57196857Y-81014819D01*
X57196857Y-81014819D02*
X57339714Y-81062438D01*
X57339714Y-81062438D02*
X57387333Y-81110057D01*
X57768286Y-81110057D02*
X57815905Y-81062438D01*
X57815905Y-81062438D02*
X57911143Y-81014819D01*
X57911143Y-81014819D02*
X58149238Y-81014819D01*
X58149238Y-81014819D02*
X58244476Y-81062438D01*
X58244476Y-81062438D02*
X58292095Y-81110057D01*
X58292095Y-81110057D02*
X58339714Y-81205295D01*
X58339714Y-81205295D02*
X58339714Y-81300533D01*
X58339714Y-81300533D02*
X58292095Y-81443390D01*
X58292095Y-81443390D02*
X57720667Y-82014819D01*
X57720667Y-82014819D02*
X58339714Y-82014819D01*
X52173333Y-82338152D02*
X52173333Y-83004819D01*
X51935238Y-81957200D02*
X51697143Y-82671485D01*
X51697143Y-82671485D02*
X52316190Y-82671485D01*
X52601905Y-82004819D02*
X53268571Y-82004819D01*
X53268571Y-82004819D02*
X52840000Y-83004819D01*
X54078095Y-82338152D02*
X54078095Y-83004819D01*
X53649524Y-82338152D02*
X53649524Y-82861961D01*
X53649524Y-82861961D02*
X53697143Y-82957200D01*
X53697143Y-82957200D02*
X53792381Y-83004819D01*
X53792381Y-83004819D02*
X53935238Y-83004819D01*
X53935238Y-83004819D02*
X54030476Y-82957200D01*
X54030476Y-82957200D02*
X54078095Y-82909580D01*
X54887619Y-82481009D02*
X54554286Y-82481009D01*
X54554286Y-83004819D02*
X54554286Y-82004819D01*
X54554286Y-82004819D02*
X55030476Y-82004819D01*
X59993333Y-65614819D02*
X59660000Y-65138628D01*
X59421905Y-65614819D02*
X59421905Y-64614819D01*
X59421905Y-64614819D02*
X59802857Y-64614819D01*
X59802857Y-64614819D02*
X59898095Y-64662438D01*
X59898095Y-64662438D02*
X59945714Y-64710057D01*
X59945714Y-64710057D02*
X59993333Y-64805295D01*
X59993333Y-64805295D02*
X59993333Y-64948152D01*
X59993333Y-64948152D02*
X59945714Y-65043390D01*
X59945714Y-65043390D02*
X59898095Y-65091009D01*
X59898095Y-65091009D02*
X59802857Y-65138628D01*
X59802857Y-65138628D02*
X59421905Y-65138628D01*
X60945714Y-65614819D02*
X60374286Y-65614819D01*
X60660000Y-65614819D02*
X60660000Y-64614819D01*
X60660000Y-64614819D02*
X60564762Y-64757676D01*
X60564762Y-64757676D02*
X60469524Y-64852914D01*
X60469524Y-64852914D02*
X60374286Y-64900533D01*
X51953333Y-64948152D02*
X51953333Y-65614819D01*
X51715238Y-64567200D02*
X51477143Y-65281485D01*
X51477143Y-65281485D02*
X52096190Y-65281485D01*
X52381905Y-64614819D02*
X53048571Y-64614819D01*
X53048571Y-64614819D02*
X52620000Y-65614819D01*
X53620000Y-64614819D02*
X53715238Y-64614819D01*
X53715238Y-64614819D02*
X53810476Y-64662438D01*
X53810476Y-64662438D02*
X53858095Y-64710057D01*
X53858095Y-64710057D02*
X53905714Y-64805295D01*
X53905714Y-64805295D02*
X53953333Y-64995771D01*
X53953333Y-64995771D02*
X53953333Y-65233866D01*
X53953333Y-65233866D02*
X53905714Y-65424342D01*
X53905714Y-65424342D02*
X53858095Y-65519580D01*
X53858095Y-65519580D02*
X53810476Y-65567200D01*
X53810476Y-65567200D02*
X53715238Y-65614819D01*
X53715238Y-65614819D02*
X53620000Y-65614819D01*
X53620000Y-65614819D02*
X53524762Y-65567200D01*
X53524762Y-65567200D02*
X53477143Y-65519580D01*
X53477143Y-65519580D02*
X53429524Y-65424342D01*
X53429524Y-65424342D02*
X53381905Y-65233866D01*
X53381905Y-65233866D02*
X53381905Y-64995771D01*
X53381905Y-64995771D02*
X53429524Y-64805295D01*
X53429524Y-64805295D02*
X53477143Y-64710057D01*
X53477143Y-64710057D02*
X53524762Y-64662438D01*
X53524762Y-64662438D02*
X53620000Y-64614819D01*
X54381905Y-65614819D02*
X54381905Y-64614819D01*
X54477143Y-65233866D02*
X54762857Y-65614819D01*
X54762857Y-64948152D02*
X54381905Y-65329104D01*
D12*
%TO.C,C1*%
X70665000Y-79560199D02*
X70665000Y-79960199D01*
X70865000Y-79760199D02*
X70465000Y-79760199D01*
X71550000Y-81830000D02*
X67390000Y-81830000D01*
X71550000Y-81870000D02*
X67390000Y-81870000D01*
X71549000Y-81910000D02*
X67391000Y-81910000D01*
X71547000Y-81950000D02*
X67393000Y-81950000D01*
X71544000Y-81990000D02*
X67396000Y-81990000D01*
X71541000Y-82030000D02*
X70310000Y-82030000D01*
X68630000Y-82030000D02*
X67399000Y-82030000D01*
X71537000Y-82070000D02*
X70310000Y-82070000D01*
X68630000Y-82070000D02*
X67403000Y-82070000D01*
X71532000Y-82110000D02*
X70310000Y-82110000D01*
X68630000Y-82110000D02*
X67408000Y-82110000D01*
X71526000Y-82150000D02*
X70310000Y-82150000D01*
X68630000Y-82150000D02*
X67414000Y-82150000D01*
X71520000Y-82190000D02*
X70310000Y-82190000D01*
X68630000Y-82190000D02*
X67420000Y-82190000D01*
X71512000Y-82230000D02*
X70310000Y-82230000D01*
X68630000Y-82230000D02*
X67428000Y-82230000D01*
X71504000Y-82270000D02*
X70310000Y-82270000D01*
X68630000Y-82270000D02*
X67436000Y-82270000D01*
X71495000Y-82310000D02*
X70310000Y-82310000D01*
X68630000Y-82310000D02*
X67445000Y-82310000D01*
X71486000Y-82350000D02*
X70310000Y-82350000D01*
X68630000Y-82350000D02*
X67454000Y-82350000D01*
X71475000Y-82390000D02*
X70310000Y-82390000D01*
X68630000Y-82390000D02*
X67465000Y-82390000D01*
X71464000Y-82430000D02*
X70310000Y-82430000D01*
X68630000Y-82430000D02*
X67476000Y-82430000D01*
X71452000Y-82470000D02*
X70310000Y-82470000D01*
X68630000Y-82470000D02*
X67488000Y-82470000D01*
X71438000Y-82510000D02*
X70310000Y-82510000D01*
X68630000Y-82510000D02*
X67502000Y-82510000D01*
X71424000Y-82551000D02*
X70310000Y-82551000D01*
X68630000Y-82551000D02*
X67516000Y-82551000D01*
X71410000Y-82591000D02*
X70310000Y-82591000D01*
X68630000Y-82591000D02*
X67530000Y-82591000D01*
X71394000Y-82631000D02*
X70310000Y-82631000D01*
X68630000Y-82631000D02*
X67546000Y-82631000D01*
X71377000Y-82671000D02*
X70310000Y-82671000D01*
X68630000Y-82671000D02*
X67563000Y-82671000D01*
X71359000Y-82711000D02*
X70310000Y-82711000D01*
X68630000Y-82711000D02*
X67581000Y-82711000D01*
X71340000Y-82751000D02*
X70310000Y-82751000D01*
X68630000Y-82751000D02*
X67600000Y-82751000D01*
X71321000Y-82791000D02*
X70310000Y-82791000D01*
X68630000Y-82791000D02*
X67619000Y-82791000D01*
X71300000Y-82831000D02*
X70310000Y-82831000D01*
X68630000Y-82831000D02*
X67640000Y-82831000D01*
X71278000Y-82871000D02*
X70310000Y-82871000D01*
X68630000Y-82871000D02*
X67662000Y-82871000D01*
X71255000Y-82911000D02*
X70310000Y-82911000D01*
X68630000Y-82911000D02*
X67685000Y-82911000D01*
X71230000Y-82951000D02*
X70310000Y-82951000D01*
X68630000Y-82951000D02*
X67710000Y-82951000D01*
X71205000Y-82991000D02*
X70310000Y-82991000D01*
X68630000Y-82991000D02*
X67735000Y-82991000D01*
X71178000Y-83031000D02*
X70310000Y-83031000D01*
X68630000Y-83031000D02*
X67762000Y-83031000D01*
X71150000Y-83071000D02*
X70310000Y-83071000D01*
X68630000Y-83071000D02*
X67790000Y-83071000D01*
X71120000Y-83111000D02*
X70310000Y-83111000D01*
X68630000Y-83111000D02*
X67820000Y-83111000D01*
X71089000Y-83151000D02*
X70310000Y-83151000D01*
X68630000Y-83151000D02*
X67851000Y-83151000D01*
X71057000Y-83191000D02*
X70310000Y-83191000D01*
X68630000Y-83191000D02*
X67883000Y-83191000D01*
X71022000Y-83231000D02*
X70310000Y-83231000D01*
X68630000Y-83231000D02*
X67918000Y-83231000D01*
X70986000Y-83271000D02*
X70310000Y-83271000D01*
X68630000Y-83271000D02*
X67954000Y-83271000D01*
X70948000Y-83311000D02*
X70310000Y-83311000D01*
X68630000Y-83311000D02*
X67992000Y-83311000D01*
X70908000Y-83351000D02*
X70310000Y-83351000D01*
X68630000Y-83351000D02*
X68032000Y-83351000D01*
X70866000Y-83391000D02*
X70310000Y-83391000D01*
X68630000Y-83391000D02*
X68074000Y-83391000D01*
X70821000Y-83431000D02*
X70310000Y-83431000D01*
X68630000Y-83431000D02*
X68119000Y-83431000D01*
X70774000Y-83471000D02*
X70310000Y-83471000D01*
X68630000Y-83471000D02*
X68166000Y-83471000D01*
X70724000Y-83511000D02*
X70310000Y-83511000D01*
X68630000Y-83511000D02*
X68216000Y-83511000D01*
X70670000Y-83551000D02*
X70310000Y-83551000D01*
X68630000Y-83551000D02*
X68270000Y-83551000D01*
X70612000Y-83591000D02*
X70310000Y-83591000D01*
X68630000Y-83591000D02*
X68328000Y-83591000D01*
X70550000Y-83631000D02*
X70310000Y-83631000D01*
X68630000Y-83631000D02*
X68390000Y-83631000D01*
X70483000Y-83671000D02*
X68457000Y-83671000D01*
X70410000Y-83711000D02*
X68530000Y-83711000D01*
X70329000Y-83751000D02*
X68611000Y-83751000D01*
X70238000Y-83791000D02*
X68702000Y-83791000D01*
X70134000Y-83831000D02*
X68806000Y-83831000D01*
X70007000Y-83871000D02*
X68933000Y-83871000D01*
X69840000Y-83911000D02*
X69100000Y-83911000D01*
X71590000Y-81830000D02*
G75*
G02*
X67350000Y-81830000I-2120000J0D01*
G01*
X67350000Y-81830000D02*
G75*
G02*
X71590000Y-81830000I2120000J0D01*
G01*
%TO.C,R2*%
X56700000Y-68270000D02*
X63240000Y-68270000D01*
X56700000Y-68600000D02*
X56700000Y-68270000D01*
X56700000Y-70680000D02*
X56700000Y-71010000D01*
X56700000Y-71010000D02*
X63240000Y-71010000D01*
X63240000Y-68270000D02*
X63240000Y-68600000D01*
X63240000Y-71010000D02*
X63240000Y-70680000D01*
%TO.C,R3*%
X56590000Y-72820000D02*
X63130000Y-72820000D01*
X56590000Y-73150000D02*
X56590000Y-72820000D01*
X56590000Y-75230000D02*
X56590000Y-75560000D01*
X56590000Y-75560000D02*
X63130000Y-75560000D01*
X63130000Y-72820000D02*
X63130000Y-73150000D01*
X63130000Y-75560000D02*
X63130000Y-75230000D01*
%TO.C,R4*%
X59430000Y-88280000D02*
X65970000Y-88280000D01*
X59430000Y-88610000D02*
X59430000Y-88280000D01*
X59430000Y-90690000D02*
X59430000Y-91020000D01*
X59430000Y-91020000D02*
X65970000Y-91020000D01*
X65970000Y-88280000D02*
X65970000Y-88610000D01*
X65970000Y-91020000D02*
X65970000Y-90690000D01*
%TO.C,U2*%
X72900000Y-65360000D02*
X72900000Y-75640000D01*
X72900000Y-75640000D02*
X78200000Y-75640000D01*
X74550000Y-65360000D02*
X72900000Y-65360000D01*
X78200000Y-65360000D02*
X76550000Y-65360000D01*
X78200000Y-75640000D02*
X78200000Y-65360000D01*
X76550000Y-65360000D02*
G75*
G02*
X74550000Y-65360000I-1000000J0D01*
G01*
%TO.C,U3*%
X85005001Y-66285001D02*
X85005001Y-86725001D01*
X85005001Y-86725001D02*
X90305001Y-86725001D01*
X86655001Y-66285001D02*
X85005001Y-66285001D01*
X90305001Y-66285001D02*
X88655001Y-66285001D01*
X90305001Y-86725001D02*
X90305001Y-66285001D01*
X88655001Y-66285001D02*
G75*
G02*
X86655001Y-66285001I-1000000J0D01*
G01*
%TO.C,S1*%
X84250000Y-58500000D02*
X84250000Y-60000000D01*
X85500000Y-62500000D02*
X90000000Y-62500000D01*
X90000000Y-56000000D02*
X85500000Y-56000000D01*
X91250000Y-60000000D02*
X91250000Y-58500000D01*
%TO.C,C2*%
X59869000Y-80010199D02*
X59869000Y-80410199D01*
X60069000Y-80210199D02*
X59669000Y-80210199D01*
X60754000Y-82280000D02*
X56594000Y-82280000D01*
X60754000Y-82320000D02*
X56594000Y-82320000D01*
X60753000Y-82360000D02*
X56595000Y-82360000D01*
X60751000Y-82400000D02*
X56597000Y-82400000D01*
X60748000Y-82440000D02*
X56600000Y-82440000D01*
X60745000Y-82480000D02*
X59514000Y-82480000D01*
X57834000Y-82480000D02*
X56603000Y-82480000D01*
X60741000Y-82520000D02*
X59514000Y-82520000D01*
X57834000Y-82520000D02*
X56607000Y-82520000D01*
X60736000Y-82560000D02*
X59514000Y-82560000D01*
X57834000Y-82560000D02*
X56612000Y-82560000D01*
X60730000Y-82600000D02*
X59514000Y-82600000D01*
X57834000Y-82600000D02*
X56618000Y-82600000D01*
X60724000Y-82640000D02*
X59514000Y-82640000D01*
X57834000Y-82640000D02*
X56624000Y-82640000D01*
X60716000Y-82680000D02*
X59514000Y-82680000D01*
X57834000Y-82680000D02*
X56632000Y-82680000D01*
X60708000Y-82720000D02*
X59514000Y-82720000D01*
X57834000Y-82720000D02*
X56640000Y-82720000D01*
X60699000Y-82760000D02*
X59514000Y-82760000D01*
X57834000Y-82760000D02*
X56649000Y-82760000D01*
X60690000Y-82800000D02*
X59514000Y-82800000D01*
X57834000Y-82800000D02*
X56658000Y-82800000D01*
X60679000Y-82840000D02*
X59514000Y-82840000D01*
X57834000Y-82840000D02*
X56669000Y-82840000D01*
X60668000Y-82880000D02*
X59514000Y-82880000D01*
X57834000Y-82880000D02*
X56680000Y-82880000D01*
X60656000Y-82920000D02*
X59514000Y-82920000D01*
X57834000Y-82920000D02*
X56692000Y-82920000D01*
X60642000Y-82960000D02*
X59514000Y-82960000D01*
X57834000Y-82960000D02*
X56706000Y-82960000D01*
X60628000Y-83001000D02*
X59514000Y-83001000D01*
X57834000Y-83001000D02*
X56720000Y-83001000D01*
X60614000Y-83041000D02*
X59514000Y-83041000D01*
X57834000Y-83041000D02*
X56734000Y-83041000D01*
X60598000Y-83081000D02*
X59514000Y-83081000D01*
X57834000Y-83081000D02*
X56750000Y-83081000D01*
X60581000Y-83121000D02*
X59514000Y-83121000D01*
X57834000Y-83121000D02*
X56767000Y-83121000D01*
X60563000Y-83161000D02*
X59514000Y-83161000D01*
X57834000Y-83161000D02*
X56785000Y-83161000D01*
X60544000Y-83201000D02*
X59514000Y-83201000D01*
X57834000Y-83201000D02*
X56804000Y-83201000D01*
X60525000Y-83241000D02*
X59514000Y-83241000D01*
X57834000Y-83241000D02*
X56823000Y-83241000D01*
X60504000Y-83281000D02*
X59514000Y-83281000D01*
X57834000Y-83281000D02*
X56844000Y-83281000D01*
X60482000Y-83321000D02*
X59514000Y-83321000D01*
X57834000Y-83321000D02*
X56866000Y-83321000D01*
X60459000Y-83361000D02*
X59514000Y-83361000D01*
X57834000Y-83361000D02*
X56889000Y-83361000D01*
X60434000Y-83401000D02*
X59514000Y-83401000D01*
X57834000Y-83401000D02*
X56914000Y-83401000D01*
X60409000Y-83441000D02*
X59514000Y-83441000D01*
X57834000Y-83441000D02*
X56939000Y-83441000D01*
X60382000Y-83481000D02*
X59514000Y-83481000D01*
X57834000Y-83481000D02*
X56966000Y-83481000D01*
X60354000Y-83521000D02*
X59514000Y-83521000D01*
X57834000Y-83521000D02*
X56994000Y-83521000D01*
X60324000Y-83561000D02*
X59514000Y-83561000D01*
X57834000Y-83561000D02*
X57024000Y-83561000D01*
X60293000Y-83601000D02*
X59514000Y-83601000D01*
X57834000Y-83601000D02*
X57055000Y-83601000D01*
X60261000Y-83641000D02*
X59514000Y-83641000D01*
X57834000Y-83641000D02*
X57087000Y-83641000D01*
X60226000Y-83681000D02*
X59514000Y-83681000D01*
X57834000Y-83681000D02*
X57122000Y-83681000D01*
X60190000Y-83721000D02*
X59514000Y-83721000D01*
X57834000Y-83721000D02*
X57158000Y-83721000D01*
X60152000Y-83761000D02*
X59514000Y-83761000D01*
X57834000Y-83761000D02*
X57196000Y-83761000D01*
X60112000Y-83801000D02*
X59514000Y-83801000D01*
X57834000Y-83801000D02*
X57236000Y-83801000D01*
X60070000Y-83841000D02*
X59514000Y-83841000D01*
X57834000Y-83841000D02*
X57278000Y-83841000D01*
X60025000Y-83881000D02*
X59514000Y-83881000D01*
X57834000Y-83881000D02*
X57323000Y-83881000D01*
X59978000Y-83921000D02*
X59514000Y-83921000D01*
X57834000Y-83921000D02*
X57370000Y-83921000D01*
X59928000Y-83961000D02*
X59514000Y-83961000D01*
X57834000Y-83961000D02*
X57420000Y-83961000D01*
X59874000Y-84001000D02*
X59514000Y-84001000D01*
X57834000Y-84001000D02*
X57474000Y-84001000D01*
X59816000Y-84041000D02*
X59514000Y-84041000D01*
X57834000Y-84041000D02*
X57532000Y-84041000D01*
X59754000Y-84081000D02*
X59514000Y-84081000D01*
X57834000Y-84081000D02*
X57594000Y-84081000D01*
X59687000Y-84121000D02*
X57661000Y-84121000D01*
X59614000Y-84161000D02*
X57734000Y-84161000D01*
X59533000Y-84201000D02*
X57815000Y-84201000D01*
X59442000Y-84241000D02*
X57906000Y-84241000D01*
X59338000Y-84281000D02*
X58010000Y-84281000D01*
X59211000Y-84321000D02*
X58137000Y-84321000D01*
X59044000Y-84361000D02*
X58304000Y-84361000D01*
X60794000Y-82280000D02*
G75*
G02*
X56554000Y-82280000I-2120000J0D01*
G01*
X56554000Y-82280000D02*
G75*
G02*
X60794000Y-82280000I2120000J0D01*
G01*
%TO.C,R1*%
X56820000Y-63720000D02*
X63360000Y-63720000D01*
X56820000Y-64050000D02*
X56820000Y-63720000D01*
X56820000Y-66130000D02*
X56820000Y-66460000D01*
X56820000Y-66460000D02*
X63360000Y-66460000D01*
X63360000Y-63720000D02*
X63360000Y-64050000D01*
X63360000Y-66460000D02*
X63360000Y-66130000D01*
%TD*%
M02*
