%TF.GenerationSoftware,KiCad,Pcbnew,8.0.1*%
%TF.CreationDate,2024-04-02T10:16:43+02:00*%
%TF.ProjectId,GluecksraD,476c7565-636b-4737-9261-442e6b696361,rev?*%
%TF.SameCoordinates,Original*%
%TF.FileFunction,Soldermask,Bot*%
%TF.FilePolarity,Negative*%
%FSLAX46Y46*%
G04 Gerber Fmt 4.6, Leading zero omitted, Abs format (unit mm)*
G04 Created by KiCad (PCBNEW 8.0.1) date 2024-04-02 10:16:43*
%MOMM*%
%LPD*%
G01*
G04 APERTURE LIST*
G04 Aperture macros list*
%AMRoundRect*
0 Rectangle with rounded corners*
0 $1 Rounding radius*
0 $2 $3 $4 $5 $6 $7 $8 $9 X,Y pos of 4 corners*
0 Add a 4 corners polygon primitive as box body*
4,1,4,$2,$3,$4,$5,$6,$7,$8,$9,$2,$3,0*
0 Add four circle primitives for the rounded corners*
1,1,$1+$1,$2,$3*
1,1,$1+$1,$4,$5*
1,1,$1+$1,$6,$7*
1,1,$1+$1,$8,$9*
0 Add four rect primitives between the rounded corners*
20,1,$1+$1,$2,$3,$4,$5,0*
20,1,$1+$1,$4,$5,$6,$7,0*
20,1,$1+$1,$6,$7,$8,$9,0*
20,1,$1+$1,$8,$9,$2,$3,0*%
G04 Aperture macros list end*
%ADD10C,1.630000*%
%ADD11C,1.700000*%
%ADD12C,2.000000*%
%ADD13O,2.000000X2.000000*%
%ADD14C,2.200000*%
%ADD15O,2.200000X2.200000*%
%ADD16O,2.400000X4.400000*%
%ADD17RoundRect,0.200000X-0.800000X-0.800000X0.800000X-0.800000X0.800000X0.800000X-0.800000X0.800000X0*%
%ADD18C,2.400000*%
%ADD19RoundRect,0.200000X0.900000X0.900000X-0.900000X0.900000X-0.900000X-0.900000X0.900000X-0.900000X0*%
%ADD20RoundRect,0.200000X-0.900000X0.900000X-0.900000X-0.900000X0.900000X-0.900000X0.900000X0.900000X0*%
%ADD21RoundRect,0.200000X-0.900000X-0.900000X0.900000X-0.900000X0.900000X0.900000X-0.900000X0.900000X0*%
%ADD22RoundRect,0.200000X0.750000X0.750000X-0.750000X0.750000X-0.750000X-0.750000X0.750000X-0.750000X0*%
%ADD23C,1.900000*%
G04 APERTURE END LIST*
D10*
%TO.C,C1*%
X69470000Y-80830000D03*
D11*
X69470000Y-82830000D03*
%TD*%
D12*
%TO.C,R2*%
X56160000Y-69640000D03*
D13*
X63780000Y-69640000D03*
%TD*%
D12*
%TO.C,R3*%
X56050000Y-74190000D03*
D13*
X63670000Y-74190000D03*
%TD*%
D14*
%TO.C,R4*%
X58890000Y-89650000D03*
D15*
X66510000Y-89650000D03*
%TD*%
D16*
%TO.C,+9V*%
X73120000Y-90424000D03*
%TD*%
D17*
%TO.C,U2*%
X71740000Y-66690000D03*
D13*
X71740000Y-69230000D03*
X71740000Y-71770000D03*
X71740000Y-74310000D03*
X79360000Y-74310000D03*
X79360000Y-71770000D03*
X79360000Y-69230000D03*
X79360000Y-66690000D03*
%TD*%
D17*
%TO.C,U3*%
X83845001Y-67615001D03*
D13*
X83845001Y-70155001D03*
X83845001Y-72695001D03*
X83845001Y-75235001D03*
X83845001Y-77775001D03*
X83845001Y-80315001D03*
X83845001Y-82855001D03*
X83845001Y-85395001D03*
X91465001Y-85395001D03*
X91465001Y-82855001D03*
X91465001Y-80315001D03*
X91465001Y-77775001D03*
X91465001Y-75235001D03*
X91465001Y-72695001D03*
X91465001Y-70155001D03*
X91465001Y-67615001D03*
%TD*%
D16*
%TO.C,0V*%
X78740000Y-90424000D03*
%TD*%
D18*
%TO.C,S1*%
X84500000Y-57000000D03*
X91000000Y-57000000D03*
X84500000Y-61500000D03*
X91000000Y-61500000D03*
%TD*%
D11*
%TO.C,C2*%
X58674000Y-81280000D03*
X58674000Y-83280000D03*
%TD*%
D18*
%TO.C,LP*%
X73152000Y-98806000D03*
%TD*%
%TO.C,LP*%
X78740000Y-98806000D03*
%TD*%
%TO.C,LP*%
X78740000Y-94996000D03*
%TD*%
D12*
%TO.C,R1*%
X56280000Y-65090000D03*
D13*
X63900000Y-65090000D03*
%TD*%
D18*
%TO.C,LP*%
X73152000Y-94996000D03*
%TD*%
D19*
%TO.C,1*%
X73830000Y-46940000D03*
D14*
X71290000Y-46940000D03*
%TD*%
D19*
%TO.C,2*%
X90110000Y-51670000D03*
D14*
X87570000Y-51670000D03*
%TD*%
D19*
%TO.C,3*%
X100410000Y-66210000D03*
D14*
X97870000Y-66210000D03*
%TD*%
D19*
%TO.C,4*%
X100320000Y-83050000D03*
D14*
X97780000Y-83050000D03*
%TD*%
D19*
%TO.C,5*%
X90260000Y-96920000D03*
D14*
X87720000Y-96920000D03*
%TD*%
D20*
%TO.C,6*%
X72490000Y-103500000D03*
D14*
X72490000Y-106040000D03*
%TD*%
D20*
%TO.C,7*%
X56570000Y-98410000D03*
D14*
X56570000Y-100950000D03*
%TD*%
D21*
%TO.C,8*%
X44810000Y-83090000D03*
D14*
X47350000Y-83090000D03*
%TD*%
D21*
%TO.C,9*%
X44810000Y-65800000D03*
D14*
X47350000Y-65800000D03*
%TD*%
D21*
%TO.C,10*%
X54760000Y-51990000D03*
D14*
X57300000Y-51990000D03*
%TD*%
D22*
%TO.C,REF\u002A\u002A*%
X58677000Y-59961000D03*
D23*
X57280000Y-57929000D03*
X55629000Y-60088000D03*
%TD*%
M02*
