M48
; DRILL file {KiCad 8.0.1} date 2024-04-02T10:16:45+0200
; FORMAT={-:-/ absolute / inch / decimal}
; #@! TF.CreationDate,2024-04-02T10:16:45+02:00
; #@! TF.GenerationSoftware,Kicad,Pcbnew,8.0.1
; #@! TF.FileFunction,Plated,1,2,PTH
FMAT,2
INCH
; #@! TA.AperFunction,Plated,PTH,ViaDrill
T1C0.0157
; #@! TA.AperFunction,Plated,PTH,ComponentDrill
T2C0.0315
; #@! TA.AperFunction,Plated,PTH,ComponentDrill
T3C0.0354
; #@! TA.AperFunction,Plated,PTH,ComponentDrill
T4C0.0394
; #@! TA.AperFunction,Plated,PTH,ComponentDrill
T5C0.0433
; #@! TA.AperFunction,Plated,PTH,ComponentDrill
T6C0.0591
%
G90
G05
T1
X2.4398Y-2.4449
X3.0591Y-3.0701
X3.3071Y-2.0866
X3.3268Y-3.8079
X3.3287Y-3.5728
X3.5555Y-3.5559
X3.74Y-3.32
T2
X2.1901Y-2.3657
X2.2551Y-2.2807
X2.31Y-3.2
X2.31Y-3.2787
X2.3101Y-2.3607
X2.735Y-3.1823
X2.735Y-3.261
X2.8244Y-2.6256
X2.8244Y-2.7256
X2.8244Y-2.8256
X2.8244Y-2.9256
X3.1244Y-2.6256
X3.1244Y-2.7256
X3.1244Y-2.8256
X3.1244Y-2.9256
X3.301Y-2.662
X3.301Y-2.762
X3.301Y-2.862
X3.301Y-2.962
X3.301Y-3.062
X3.301Y-3.162
X3.301Y-3.262
X3.301Y-3.362
X3.601Y-2.662
X3.601Y-2.762
X3.601Y-2.862
X3.601Y-2.962
X3.601Y-3.062
X3.601Y-3.162
X3.601Y-3.262
X3.601Y-3.362
T3
X1.7642Y-2.5906
X1.7642Y-3.2713
X1.8642Y-2.5906
X1.8642Y-3.2713
X2.1559Y-2.0469
X2.2272Y-3.8744
X2.2272Y-3.9744
X2.2559Y-2.0469
X2.8067Y-1.848
X2.8539Y-4.0748
X2.8539Y-4.1748
X2.9067Y-1.848
X3.4476Y-2.0343
X3.4535Y-3.8157
X3.5476Y-2.0343
X3.5535Y-3.8157
X3.8496Y-3.2697
X3.8531Y-2.6067
X3.9496Y-3.2697
X3.9531Y-2.6067
T4
X2.2067Y-2.9209
X2.211Y-2.7417
X2.2157Y-2.5626
X2.3185Y-3.5295
X2.5067Y-2.9209
X2.511Y-2.7417
X2.5157Y-2.5626
X2.6185Y-3.5295
X2.8787Y-3.56
X3.1Y-3.56
T5
X3.3268Y-2.2441
X3.3268Y-2.4213
X3.5827Y-2.2441
X3.5827Y-2.4213
T6
X2.88Y-3.74
X2.88Y-3.89
X3.1Y-3.74
X3.1Y-3.89
M30
